<svg xmlns="http://www.w3.org/2000/svg" width="66.545" height="132.391" viewBox="0 0 66.545 132.391">
  <g id="그룹_5220" data-name="그룹 5220" transform="translate(10.458 -61.415)">
    <g id="그룹_5216" data-name="그룹 5216" transform="translate(-9.81 61.908)">
      <path id="패스_3941" data-name="패스 3941" d="M23.062,519.508a1.152,1.152,0,1,1-.747-1.447,1.151,1.151,0,0,1,.747,1.447" transform="translate(-6.515 -437.334)" fill="#4c3a31"/>
      <g id="그룹_5215" data-name="그룹 5215" transform="translate(0 0)">
        <path id="패스_3939" data-name="패스 3939" d="M12.524,480.176a3.409,3.409,0,0,1-1.283,2.053,1.376,1.376,0,0,1,.156,1.71,1.288,1.288,0,0,1-1.682.309s1.289,1.423-.029,3.72-6.532,6.178-8.39,9.838l-.649-.272c1.76-3.708,1.641-10.208,2.652-12.655s2.925-2.3,2.925-2.3a1.288,1.288,0,0,1-.785-1.52,1.375,1.375,0,0,1,1.448-.923,3.41,3.41,0,0,1,.84-2.271" transform="translate(-0.648 -376.109)" fill="#ccc"/>
        <path id="패스_3940" data-name="패스 3940" d="M12.524,480.176a3.409,3.409,0,0,1-1.283,2.053,1.376,1.376,0,0,1,.156,1.71,1.288,1.288,0,0,1-1.682.309s1.289,1.423-.029,3.72-6.532,6.178-8.39,9.838l-.649-.272c1.76-3.708,1.641-10.208,2.652-12.655s2.925-2.3,2.925-2.3a1.288,1.288,0,0,1-.785-1.52,1.375,1.375,0,0,1,1.448-.923,3.41,3.41,0,0,1,.84-2.271" transform="translate(-0.648 -376.109)" fill="none" stroke="#4c3a31" stroke-miterlimit="10" stroke-width="0.958"/>
        <path id="패스_3942" data-name="패스 3942" d="M22.634,519.223a.933.933,0,1,1-.605-1.172A.933.933,0,0,1,22.634,519.223Z" transform="translate(-16.515 -407.69)" fill="none" stroke="#4c3a31" stroke-miterlimit="10" stroke-width="0.958"/>
        <line id="선_777" data-name="선 777" x1="4.514" y2="9.599" transform="translate(0.328 112.01)" fill="none" stroke="#4c3a31" stroke-miterlimit="10" stroke-width="0.958"/>
        <path id="패스_3943" data-name="패스 3943" d="M76.471,30.265,28.817,121.49a3.559,3.559,0,0,0,1.569,4.833l2.717,1.353a3.559,3.559,0,0,0,4.852-1.772L78.813,31.418" transform="translate(-22.494 -23.916)" fill="#806868"/>
        <path id="패스_3944" data-name="패스 3944" d="M76.471,30.265,28.817,121.49a3.559,3.559,0,0,0,1.569,4.833l2.717,1.353a3.559,3.559,0,0,0,4.852-1.772L78.813,31.418" transform="translate(-22.494 -23.916)" fill="none" stroke="#4c3a31" stroke-miterlimit="10" stroke-width="0.958"/>
        <path id="패스_3945" data-name="패스 3945" d="M257.62,5.474c-.984,1.964-2.881,3.006-4.237,2.327s-1.659-2.822-.675-4.787S255.588.009,256.944.688s1.659,2.822.675,4.787" transform="translate(-198.524 -0.48)" fill="#6c5050"/>
        <path id="패스_3946" data-name="패스 3946" d="M257.62,5.474c-.984,1.964-2.881,3.006-4.237,2.327s-1.659-2.822-.675-4.787S255.588.009,256.944.688,258.6,3.51,257.62,5.474Z" transform="translate(-198.524 -0.48)" fill="none" stroke="#4c3a31" stroke-miterlimit="10" stroke-width="0.958"/>
      </g>
      <rect id="사각형_3947" data-name="사각형 3947" width="10.796" height="34.826" transform="translate(40.151 90.43)" fill="#669b6f"/>
      <path id="패스_3947" data-name="패스 3947" d="M116.329,687.267v6.091H102.041a5.486,5.486,0,0,1,4.811-5.444l2.826-.529" transform="translate(-66.365 -562.048)" fill="#f8f4ee"/>
      <path id="패스_3948" data-name="패스 3948" d="M116.329,687.267v6.091H102.041a5.486,5.486,0,0,1,4.811-5.444l2.826-.529" transform="translate(-66.365 -562.048)" fill="none" stroke="#000" stroke-miterlimit="10" stroke-width="0.958"/>
      <path id="패스_3949" data-name="패스 3949" d="M129.81,555.082l-.033,34.826h-10.8" transform="translate(-78.846 -464.652)" fill="none" stroke="#000" stroke-miterlimit="10" stroke-width="0.958"/>
      <path id="패스_3950" data-name="패스 3950" d="M173.756,588.47l-10.8,1.438-3.485-34.826h10.8Z" transform="translate(-108.684 -464.652)" fill="#669b6f"/>
      <path id="패스_3951" data-name="패스 3951" d="M174.395,682.266l.6,6.061-14.218,1.411a5.485,5.485,0,0,1,4.25-5.892l2.76-.806" transform="translate(-109.623 -558.363)" fill="#f8f4ee"/>
      <path id="패스_3952" data-name="패스 3952" d="M174.395,682.266l.6,6.061-14.218,1.411a5.485,5.485,0,0,1,4.25-5.892l2.76-.806" transform="translate(-109.623 -558.363)" fill="none" stroke="#000" stroke-miterlimit="10" stroke-width="0.958"/>
      <path id="패스_3953" data-name="패스 3953" d="M180.027,555.082l3.484,33.388-10.8,1.438" transform="translate(-118.439 -464.652)" fill="none" stroke="#000" stroke-miterlimit="10" stroke-width="0.958"/>
      <path id="패스_3954" data-name="패스 3954" d="M137.353,463.343l.94,14.173H114.984l.154-3.535-.533-22.254a8.927,8.927,0,0,1,3.029-2.134H131.9c4.107.4,4.717,3.009,4.983,7.378Z" transform="translate(-75.622 -386.927)" fill="#202f8b"/>
      <path id="패스_3955" data-name="패스 3955" d="M151.884,418.99a4.164,4.164,0,1,1-3.7-4.585,4.164,4.164,0,0,1,3.7,4.585" transform="translate(-96.97 -360.981)"/>
      <path id="패스_3956" data-name="패스 3956" d="M151.161,421.7a3.543,3.543,0,1,1-3.145-3.9,3.543,3.543,0,0,1,3.145,3.9" transform="translate(-97.351 -363.482)" fill="#f2d6c1"/>
      <path id="패스_3957" data-name="패스 3957" d="M151.161,421.7a3.543,3.543,0,1,1-3.145-3.9A3.543,3.543,0,0,1,151.161,421.7Z" transform="translate(-97.351 -363.482)" fill="none" stroke="#000" stroke-miterlimit="10" stroke-width="0.958"/>
      <path id="패스_3958" data-name="패스 3958" d="M150.7,423.433l-1.377,1.255.362.359" transform="translate(-101.203 -367.652)" fill="none" stroke="#000" stroke-miterlimit="10" stroke-width="0.958"/>
      <line id="선_778" data-name="선 778" x2="0.393" y2="0.555" transform="translate(50.032 56.039)" fill="none" stroke="#000" stroke-miterlimit="10" stroke-width="0.958"/>
      <line id="선_779" data-name="선 779" x1="0.477" y1="0.412" transform="translate(48.864 54.952)" fill="none" stroke="#000" stroke-miterlimit="10" stroke-width="0.958"/>
      <path id="패스_3959" data-name="패스 3959" d="M149.478,424.233a.128.128,0,1,1-.113-.141.128.128,0,0,1,.113.141" transform="translate(-101.13 -368.137)"/>
      <path id="패스_3960" data-name="패스 3960" d="M154.582,428.688a.128.128,0,1,1-.113-.141.128.128,0,0,1,.113.141" transform="translate(-104.89 -371.419)"/>
      <path id="패스_3961" data-name="패스 3961" d="M150.8,431.678a.511.511,0,0,1-1.017-.109Z" transform="translate(-101.541 -373.646)" fill="none" stroke="#000" stroke-miterlimit="10" stroke-width="0.958"/>
      <path id="패스_3962" data-name="패스 3962" d="M163.156,424.906a4.4,4.4,0,0,1-1.835-5.415,1.718,1.718,0,0,1,2.291.932c.658,1.6-.456,4.483-.456,4.483" transform="translate(-109.814 -364.644)"/>
      <path id="패스_3963" data-name="패스 3963" d="M160.3,431.431a.73.73,0,1,1,.122,1.309" transform="translate(-109.29 -373.467)" fill="#f2d6c1"/>
      <path id="패스_3964" data-name="패스 3964" d="M160.3,431.431a.73.73,0,1,1,.122,1.309" transform="translate(-109.29 -373.467)" fill="none" stroke="#000" stroke-miterlimit="10" stroke-width="0.958"/>
      <line id="선_780" data-name="선 780" x2="0.097" y2="0.47" transform="translate(51.551 58.258)" fill="none" stroke="#000" stroke-miterlimit="10" stroke-width="0.958"/>
      <path id="패스_3965" data-name="패스 3965" d="M176.723,457.549l3.513,7.97a5.514,5.514,0,0,1-4.58,7.717l-5.535.469" transform="translate(-116.527 -392.789)" fill="#202f8b"/>
      <path id="패스_3966" data-name="패스 3966" d="M105.9,440.7a4.335,4.335,0,0,0-1.136-6.266l-14.2-9.211.009-.016c-.326-.39-.647-.785-.973-1.175a11.821,11.821,0,0,0-1.761-1.823,2.171,2.171,0,0,0-.617-.361.971.971,0,0,0-.7.007.75.75,0,0,0-.2,1.235l-.04,0a15.087,15.087,0,0,0-3.534-.791,2.519,2.519,0,0,0-.679-.006.932.932,0,0,0-.586.317.58.58,0,0,0-.066.637l.033.059c-.033-.052-.108-.049-.17-.044-.157.011-.316-.01-.473.011a.768.768,0,0,0-.631.493.594.594,0,0,0,.294.712l-.042-.012a.41.41,0,0,0-.3.006.563.563,0,0,0-.365.284.554.554,0,0,0-.034.233,1.243,1.243,0,0,0,.259.724l-.025.045a.455.455,0,0,0-.445.594.735.735,0,0,0,.1.183c.775,1.129,3.073,2.222,4.359,3.155l-.034-.037,15.872,11.894a4.335,4.335,0,0,0,6.085-.843" transform="translate(-49.758 -366.44)" fill="#f2d6c1"/>
      <path id="패스_3967" data-name="패스 3967" d="M105.9,440.7a4.335,4.335,0,0,0-1.136-6.266l-14.2-9.211.009-.016c-.326-.39-.647-.785-.973-1.175a11.821,11.821,0,0,0-1.761-1.823,2.171,2.171,0,0,0-.617-.361.971.971,0,0,0-.7.007.75.75,0,0,0-.2,1.235l-.04,0a15.087,15.087,0,0,0-3.534-.791,2.519,2.519,0,0,0-.679-.006.932.932,0,0,0-.586.317.58.58,0,0,0-.066.637l.033.059c-.033-.052-.108-.049-.17-.044-.157.011-.316-.01-.473.011a.768.768,0,0,0-.631.493.594.594,0,0,0,.294.712l-.042-.012a.41.41,0,0,0-.3.006.563.563,0,0,0-.365.284.554.554,0,0,0-.034.233,1.243,1.243,0,0,0,.259.724l-.025.045a.455.455,0,0,0-.445.594.735.735,0,0,0,.1.183c.775,1.129,3.073,2.222,4.359,3.155l-.034-.037,15.872,11.894A4.335,4.335,0,0,0,105.9,440.7Z" transform="translate(-49.758 -366.44)" fill="none" stroke="#000" stroke-miterlimit="10" stroke-width="0.958"/>
      <path id="패스_3968" data-name="패스 3968" d="M107.038,427.162l-2.515-.951" transform="translate(-68.194 -369.698)" fill="#f2d6c1"/>
      <path id="패스_3969" data-name="패스 3969" d="M107.038,427.162l-2.515-.951" transform="translate(-68.194 -369.698)" fill="none" stroke="#000" stroke-miterlimit="10" stroke-width="0.958"/>
      <path id="패스_3970" data-name="패스 3970" d="M85.524,427.017c1.017.334,2.307.8,3.308,1.176a1.6,1.6,0,0,1,.484.251" transform="translate(-54.195 -370.292)" fill="#f2d6c1"/>
      <path id="패스_3971" data-name="패스 3971" d="M85.524,427.017c1.017.334,2.307.8,3.308,1.176a1.6,1.6,0,0,1,.484.251" transform="translate(-54.195 -370.292)" fill="none" stroke="#000" stroke-miterlimit="10" stroke-width="0.958"/>
      <path id="패스_3972" data-name="패스 3972" d="M81.619,431.439a17.588,17.588,0,0,1,4.253,1.659" transform="translate(-51.318 -373.55)" fill="#f2d6c1"/>
      <path id="패스_3973" data-name="패스 3973" d="M81.619,431.439a17.588,17.588,0,0,1,4.253,1.659" transform="translate(-51.318 -373.55)" fill="none" stroke="#000" stroke-miterlimit="10" stroke-width="0.958"/>
      <path id="패스_3974" data-name="패스 3974" d="M80.118,436.308c1.059.321,2.428.806,3.465,1.193a2.212,2.212,0,0,1,.866.488" transform="translate(-50.212 -377.138)" fill="#f2d6c1"/>
      <path id="패스_3975" data-name="패스 3975" d="M80.118,436.308c1.059.321,2.428.806,3.465,1.193a2.212,2.212,0,0,1,.866.488" transform="translate(-50.212 -377.138)" fill="none" stroke="#000" stroke-miterlimit="10" stroke-width="0.958"/>
    </g>
  </g>
</svg>
