<svg xmlns="http://www.w3.org/2000/svg" xmlns:xlink="http://www.w3.org/1999/xlink" width="81.138" height="88.332" viewBox="0 0 81.138 88.332">
  <defs>
    <clipPath id="clip-path">
      <rect id="사각형_3946" data-name="사각형 3946" width="81.138" height="81.502" fill="none"/>
    </clipPath>
    <clipPath id="clip-path-2">
      <rect id="사각형_3970" data-name="사각형 3970" width="59.165" height="45.129" fill="none"/>
    </clipPath>
  </defs>
  <g id="그룹_5304" data-name="그룹 5304" transform="translate(-40 -900.668)">
    <g id="그룹_5221" data-name="그룹 5221" transform="translate(40 900.668)">
      <rect id="사각형_3945" data-name="사각형 3945" width="27.894" height="8.647" transform="translate(15.413 65.042) rotate(-90.102)" fill="#4a6482"/>
      <g id="그룹_5152" data-name="그룹 5152">
        <g id="그룹_5151" data-name="그룹 5151" clip-path="url(#clip-path)">
          <path id="패스_3896" data-name="패스 3896" d="M264.723,321.77l.009,4.879,11.444-.02a4.394,4.394,0,0,0-3.861-4.354l-2.264-.42" transform="translate(-248.523 -256.759)" fill="#f8f4ee"/>
          <path id="패스_3897" data-name="패스 3897" d="M264.723,321.77l.009,4.879,11.444-.02a4.394,4.394,0,0,0-3.861-4.354l-2.264-.42" transform="translate(-248.523 -256.759)" fill="none" stroke="#000" stroke-miterlimit="10" stroke-width="1"/>
          <path id="패스_3898" data-name="패스 3898" d="M282.44,183.862l.076,27.894,8.647-.015" transform="translate(-267.09 -146.714)" fill="none" stroke="#000" stroke-miterlimit="10" stroke-width="1"/>
          <path id="패스_3899" data-name="패스 3899" d="M.843,60.245,42.314,76.028,42.079,16.51.608.727Z" transform="translate(38.701 -0.58)" fill="#e8e6e3"/>
          <path id="패스_3900" data-name="패스 3900" d="M.843,60.245,42.314,76.028,42.079,16.51.608.727Z" transform="translate(38.701 -0.58)" fill="none" stroke="#000" stroke-miterlimit="10" stroke-width="1"/>
          <path id="패스_3901" data-name="패스 3901" d="M52.95,31.715,4.927,17.407l.235,59.518" transform="translate(27.192 -13.89)" fill="#fff"/>
          <path id="패스_3902" data-name="패스 3902" d="M52.95,31.715,4.927,17.407l.235,59.518" transform="translate(27.192 -13.89)" fill="none" stroke="#000" stroke-miterlimit="10" stroke-width="1"/>
          <path id="패스_3903" data-name="패스 3903" d="M64.621,44.61,13.981,31.122l.235,59.517" transform="translate(13.692 -24.834)" fill="#fff"/>
          <path id="패스_3904" data-name="패스 3904" d="M64.621,44.61,13.981,31.122l.235,59.517" transform="translate(13.692 -24.834)" fill="none" stroke="#000" stroke-miterlimit="10" stroke-width="1"/>
          <path id="패스_3905" data-name="패스 3905" d="M77.847,50.08l-51.321-13.9.235,59.517" transform="translate(-2.069 -28.867)" fill="#fff"/>
          <path id="패스_3906" data-name="패스 3906" d="M77.847,50.08l-51.321-13.9.235,59.517" transform="translate(-2.069 -28.867)" fill="none" stroke="#000" stroke-miterlimit="10" stroke-width="1"/>
          <path id="패스_3907" data-name="패스 3907" d="M.5,83.95c5.854.823,11.526-1.554,11.526-5.934l.375,59.57c0,4.38-5.545,6.728-11.4,5.905" transform="translate(68.636 -62.253)" fill="#f5c3af"/>
          <path id="패스_3908" data-name="패스 3908" d="M.5,83.95c5.854.823,11.526-1.554,11.526-5.934l.375,59.57c0,4.38-5.545,6.728-11.4,5.905" transform="translate(68.636 -62.253)" fill="none" stroke="#000" stroke-miterlimit="10" stroke-width="1"/>
          <path id="패스_3909" data-name="패스 3909" d="M57.736,103.441l47.488,12.733-.235-59.518L57.5,43.923Z" transform="translate(-35.704 -35.049)" fill="#f5c3af"/>
          <path id="패스_3910" data-name="패스 3910" d="M57.736,103.441l47.488,12.733-.235-59.518L57.5,43.923Z" transform="translate(-35.704 -35.049)" fill="none" stroke="#000" stroke-miterlimit="10" stroke-width="1"/>
          <path id="패스_3911" data-name="패스 3911" d="M322.406,203.98l8.741,2.243,6.286-28.311-8.882-1.06Z" transform="translate(-321.435 -141.12)" fill="#4a6482"/>
          <path id="패스_3912" data-name="패스 3912" d="M344.335,311.613l-1.09,4.928L354.8,319.1a4.546,4.546,0,0,0-2.918-5.265L349.7,312.9" transform="translate(-343.125 -248.654)" fill="#f8f4ee"/>
          <path id="패스_3913" data-name="패스 3913" d="M344.335,311.613l-1.09,4.928L354.8,319.1a4.546,4.546,0,0,0-2.918-5.265L349.7,312.9" transform="translate(-343.125 -248.654)" fill="none" stroke="#000" stroke-miterlimit="10" stroke-width="1"/>
          <path id="패스_3914" data-name="패스 3914" d="M359.663,176.852l-6.145,27.128,8.741,2.242" transform="translate(-352.547 -141.12)" fill="none" stroke="#000" stroke-miterlimit="10" stroke-width="1"/>
          <path id="패스_3915" data-name="패스 3915" d="M293.468,83.825l-.732,11.354,16.019-.031s-.065-22.605-.108-22.605l-10.831.262c-3.288.325-3.774,2.417-3.981,5.917Z" transform="translate(-286.762 -57.886)" fill="#4a573b"/>
          <path id="패스_3916" data-name="패스 3916" d="M308.586,40.249a3.336,3.336,0,1,0,3.48-3.184,3.336,3.336,0,0,0-3.48,3.184" transform="translate(-296.462 -29.573)"/>
          <path id="패스_3917" data-name="패스 3917" d="M309.309,43.592a2.838,2.838,0,1,0,2.961-2.709,2.838,2.838,0,0,0-2.961,2.709" transform="translate(-296.336 -32.62)" fill="#f2d6c1"/>
          <path id="패스_3918" data-name="패스 3918" d="M309.309,43.592a2.838,2.838,0,1,0,2.961-2.709A2.838,2.838,0,0,0,309.309,43.592Z" transform="translate(-296.336 -32.62)" fill="none" stroke="#000" stroke-miterlimit="10" stroke-width="1"/>
          <path id="패스_3919" data-name="패스 3919" d="M314.38,47.349l.939,1.16-.33.241" transform="translate(-297.698 -37.782)" fill="none" stroke="#000" stroke-miterlimit="10" stroke-width="1"/>
          <line id="선_770" data-name="선 770" x1="0.378" y2="0.392" transform="translate(15.848 9.706)" fill="none" stroke="#000" stroke-miterlimit="10" stroke-width="1"/>
          <line id="선_771" data-name="선 771" y1="0.269" x2="0.427" transform="translate(16.855 8.986)" fill="none" stroke="#000" stroke-miterlimit="10" stroke-width="1"/>
          <path id="패스_3920" data-name="패스 3920" d="M313.7,48.88a.1.1,0,1,0,.107-.1.1.1,0,0,0-.107.1" transform="translate(-296.149 -38.926)"/>
          <path id="패스_3921" data-name="패스 3921" d="M319.667,52.673a.1.1,0,1,0,.107-.1.1.1,0,0,0-.107.1" transform="translate(-303.319 -41.953)"/>
          <path id="패스_3922" data-name="패스 3922" d="M315.4,56.308a.409.409,0,1,0,.818.036" transform="translate(-298.802 -44.931)" fill="none" stroke="#000" stroke-miterlimit="10" stroke-width="1"/>
          <path id="패스_3923" data-name="패스 3923" d="M326.109,45.678a3.528,3.528,0,0,0,2.107-4.066,1.376,1.376,0,0,0-1.926.461c-.715,1.19-.18,3.6-.18,3.6" transform="translate(-313.013 -33.028)"/>
          <path id="패스_3924" data-name="패스 3924" d="M327.213,54.463a.585.585,0,1,0-.255,1.022" transform="translate(-311.992 -43.35)" fill="#f2d6c1"/>
          <path id="패스_3925" data-name="패스 3925" d="M327.213,54.463a.585.585,0,1,0-.255,1.022" transform="translate(-311.992 -43.35)" fill="none" stroke="#000" stroke-miterlimit="10" stroke-width="1"/>
          <line id="선_772" data-name="선 772" x1="0.133" y2="0.36" transform="translate(14.623 11.279)" fill="none" stroke="#000" stroke-miterlimit="10" stroke-width="1"/>
          <path id="패스_3926" data-name="패스 3926" d="M339.288,82.167l-2.8,6.389a4.416,4.416,0,0,0,3.679,6.174l4.434.368" transform="translate(-331.369 -65.566)" fill="#4a573b"/>
          <line id="선_773" data-name="선 773" x1="36.479" y1="9.308" transform="translate(27.127 16.918)" fill="none" stroke="#000" stroke-miterlimit="10" stroke-width="1"/>
          <line id="선_774" data-name="선 774" x1="36.479" y1="9.308" transform="translate(26.883 28.284)" fill="none" stroke="#000" stroke-miterlimit="10" stroke-width="1"/>
          <line id="선_775" data-name="선 775" x1="7.292" y1="1.946" transform="translate(54.048 70.472)" fill="none" stroke="#000" stroke-miterlimit="10" stroke-width="1"/>
          <line id="선_776" data-name="선 776" x1="7.292" y1="1.946" transform="translate(54.048 68.504)" fill="none" stroke="#000" stroke-miterlimit="10" stroke-width="1"/>
          <path id="패스_3927" data-name="패스 3927" d="M92.12,99.42l34.862,8.85V99.349L92.12,90.5Z" transform="translate(-64.456 -72.215)" fill="#fff"/>
          <path id="패스_3928" data-name="패스 3928" d="M92.12,99.42l34.862,8.85V99.349L92.12,90.5Z" transform="translate(-64.456 -72.215)" fill="none" stroke="#000" stroke-miterlimit="10" stroke-width="1"/>
          <path id="패스_3929" data-name="패스 3929" d="M256.864,113.125a3.472,3.472,0,0,1,4.67-2.052l12.475,5.3.006-.013c.4.042.811.078,1.216.12a9.483,9.483,0,0,1,2,.353,1.743,1.743,0,0,1,.516.249.776.776,0,0,1,.309.469.6.6,0,0,1-.728.688l.02.025a12.1,12.1,0,0,1,2.108,1.993,2.02,2.02,0,0,1,.308.448.746.746,0,0,1,.052.531.464.464,0,0,1-.393.329l-.054,0c.049,0,.081.05.105.093.063.11.149.205.2.319a.615.615,0,0,1-.045.639.476.476,0,0,1-.6.124l.027.023a.328.328,0,0,1,.129.2.379.379,0,0,1-.164.5,1,1,0,0,1-.6.152l-.019.037a.365.365,0,0,1-.2.561.589.589,0,0,1-.165.018c-1.1-.009-2.852-1.045-4.047-1.481l.04.006-15.006-5.213A3.472,3.472,0,0,1,256.864,113.125Z" transform="translate(-250.564 -88.4)" fill="#f2d6c1"/>
          <path id="패스_3930" data-name="패스 3930" d="M256.864,113.125a3.472,3.472,0,0,1,4.67-2.052l12.475,5.3.006-.013c.4.042.811.078,1.216.12a9.483,9.483,0,0,1,2,.353,1.743,1.743,0,0,1,.516.249.776.776,0,0,1,.309.469.6.6,0,0,1-.728.688l.02.025a12.1,12.1,0,0,1,2.108,1.993,2.02,2.02,0,0,1,.308.448.746.746,0,0,1,.052.531.464.464,0,0,1-.393.329l-.054,0c.049,0,.081.05.105.093.063.11.149.205.2.319a.615.615,0,0,1-.045.639.476.476,0,0,1-.6.124l.027.023a.328.328,0,0,1,.129.2.379.379,0,0,1-.164.5,1,1,0,0,1-.6.152l-.019.037a.365.365,0,0,1-.2.561.589.589,0,0,1-.165.018c-1.1-.009-2.852-1.045-4.047-1.481l.04.006-15.006-5.213A3.472,3.472,0,0,1,256.864,113.125Z" transform="translate(-250.564 -88.4)" fill="none" stroke="#000" stroke-miterlimit="10" stroke-width="1"/>
          <path id="패스_3931" data-name="패스 3931" d="M268.15,141.993l1.758,1.244" transform="translate(-242.947 -113.304)" fill="#f2d6c1"/>
          <path id="패스_3932" data-name="패스 3932" d="M268.15,141.993l1.758,1.244" transform="translate(-242.947 -113.304)" fill="none" stroke="#000" stroke-miterlimit="10" stroke-width="1"/>
          <path id="패스_3933" data-name="패스 3933" d="M260.409,157.634c-.678-.526-1.562-1.175-2.262-1.67a1.274,1.274,0,0,0-.383-.209" transform="translate(-231.35 -124.286)" fill="#f2d6c1"/>
          <path id="패스_3934" data-name="패스 3934" d="M260.409,157.634c-.678-.526-1.562-1.175-2.262-1.67a1.274,1.274,0,0,0-.383-.209" transform="translate(-231.35 -124.286)" fill="none" stroke="#000" stroke-miterlimit="10" stroke-width="1"/>
          <path id="패스_3935" data-name="패스 3935" d="M262.316,162.793a14.083,14.083,0,0,0-3.006-2.081" transform="translate(-233.57 -128.241)" fill="#f2d6c1"/>
          <path id="패스_3936" data-name="패스 3936" d="M262.316,162.793a14.083,14.083,0,0,0-3.006-2.081" transform="translate(-233.57 -128.241)" fill="none" stroke="#000" stroke-miterlimit="10" stroke-width="1"/>
          <path id="패스_3937" data-name="패스 3937" d="M265.7,166.768c-.688-.56-1.622-1.251-2.344-1.766a1.77,1.77,0,0,0-.712-.357" transform="translate(-237.63 -131.38)" fill="#f2d6c1"/>
          <path id="패스_3938" data-name="패스 3938" d="M265.7,166.768c-.688-.56-1.622-1.251-2.344-1.766a1.77,1.77,0,0,0-.712-.357" transform="translate(-237.63 -131.38)" fill="none" stroke="#000" stroke-miterlimit="10" stroke-width="1"/>
        </g>
      </g>
    </g>
    <g id="그룹_5222" data-name="그룹 5222" transform="translate(46.99 943.872)">
      <path id="패스_4311" data-name="패스 4311" d="M36.331,119.743l-1-10.2,36.461-5.18,1,10.2Z" transform="translate(-27.312 -80.664)" fill="#dfbb36"/>
      <g id="그룹_5182" data-name="그룹 5182" transform="translate(0 0)">
        <g id="그룹_5181" data-name="그룹 5181" clip-path="url(#clip-path-2)">
          <path id="패스_4312" data-name="패스 4312" d="M15.395,123.93l-5.757.562-1.318-13.5a5.21,5.21,0,0,1,5.59,4.045l.76,2.622" transform="translate(-6.431 -85.768)" fill="#f8f4ee"/>
          <path id="패스_4313" data-name="패스 4313" d="M15.395,123.93l-5.757.562-1.318-13.5a5.21,5.21,0,0,1,5.59,4.045l.76,2.622" transform="translate(-6.431 -85.768)" fill="none" stroke="#000" stroke-miterlimit="10" stroke-width="1"/>
          <path id="패스_4314" data-name="패스 4314" d="M69.082,132.471l-32.751,4.905-1-10.2" transform="translate(-27.312 -98.298)" fill="none" stroke="#000" stroke-miterlimit="10" stroke-width="1"/>
          <path id="패스_4315" data-name="패스 4315" d="M171.531,17.823c-2.967-.651-5.105-3.2-6.8-5.718a16.039,16.039,0,0,1-2.161-4.139c-.578-1.874-.543-4.988.916-6.528a4.727,4.727,0,0,1,6.356-.4c1.044.863,1.655,2.2,2.812,2.911,2.8,1.713,7.1,1.218,7.428,5.565a10.427,10.427,0,0,0,.253,2.917c.517,1.369,1.984,2.02,2.946,3.092a5.586,5.586,0,0,1,.976,5.382,6.7,6.7,0,0,1-3.768,3.951,8.64,8.64,0,0,1-5.4.3" transform="translate(-125.387 0)"/>
          <path id="패스_4316" data-name="패스 4316" d="M172.511,8.073a2.753,2.753,0,1,1-3.587-1.514,2.753,2.753,0,0,1,3.587,1.514" transform="translate(-129.242 -4.913)" fill="#f2d6c1"/>
          <path id="패스_4317" data-name="패스 4317" d="M172.511,8.073a2.753,2.753,0,1,1-3.587-1.514A2.753,2.753,0,0,1,172.511,8.073Z" transform="translate(-129.242 -4.913)" fill="none" stroke="#000" stroke-miterlimit="10" stroke-width="1"/>
          <path id="패스_4318" data-name="패스 4318" d="M178.451,5.561s-.358,3.226,2.607,4.065l1.435-.279-.025-2.4-.888-1.125-1.126-.295Z" transform="translate(-137.923 -4.269)"/>
          <path id="패스_4319" data-name="패스 4319" d="M146.009,54.348l0-.692,18.67,3.616-2.855-19.507a2.554,2.554,0,0,0-2.55-2.348l-8.545.017a2.9,2.9,0,0,0-2.881,2.58Z" transform="translate(-112.856 -27.376)" fill="#d5e3da"/>
          <path id="패스_4320" data-name="패스 4320" d="M180.693,17.506a.568.568,0,1,1,.565.851" transform="translate(-139.667 -13.315)" fill="#f2d6c1"/>
          <path id="패스_4321" data-name="패스 4321" d="M180.693,17.506a.568.568,0,1,1,.565.851" transform="translate(-139.667 -13.315)" fill="none" stroke="#000" stroke-miterlimit="10" stroke-width="1"/>
          <line id="선_842" data-name="선 842" x2="0.239" y2="0.286" transform="translate(41.506 4.192)" fill="none" stroke="#000" stroke-miterlimit="10" stroke-width="1"/>
          <path id="패스_4322" data-name="패스 4322" d="M170.963,14.323l-.481,1.365.38.113" transform="translate(-131.774 -11.071)" fill="none" stroke="#000" stroke-miterlimit="10" stroke-width="1"/>
          <line id="선_843" data-name="선 843" x2="0.473" y2="0.235" transform="translate(39.65 3.232)" fill="none" stroke="#000" stroke-miterlimit="10" stroke-width="1"/>
          <line id="선_844" data-name="선 844" x1="0.478" y1="0.106" transform="translate(38.451 2.917)" fill="none" stroke="#000" stroke-miterlimit="10" stroke-width="1"/>
          <path id="패스_4323" data-name="패스 4323" d="M169,16.921a.1.1,0,1,1-.129-.054.1.1,0,0,1,.129.054" transform="translate(-130.478 -13.032)"/>
          <path id="패스_4324" data-name="패스 4324" d="M174.945,18.28a.1.1,0,1,1-.13-.054.1.1,0,0,1,.13.054" transform="translate(-135.076 -14.082)"/>
          <path id="패스_4325" data-name="패스 4325" d="M172.83,21c.145.357-.015.435-.218.518s-.372.139-.518-.218" transform="translate(-133.02 -16.232)" fill="none" stroke="#000" stroke-miterlimit="10" stroke-width="1"/>
          <path id="패스_4326" data-name="패스 4326" d="M130,40.441,126.758,44.5l-4.6,6.606,6.107,3.48Z" transform="translate(-94.424 -31.259)" fill="#d5e3da"/>
          <path id="패스_4327" data-name="패스 4327" d="M194.331,42.05l4.263,13.029a3.19,3.19,0,0,1-2.85,4.2l-5.142.01a2.3,2.3,0,0,1-2.3-2.292l-.009-4.52Z" transform="translate(-145.541 -32.502)" fill="#d5e3da"/>
          <line id="선_845" data-name="선 845" x2="0.007" y2="3.857" transform="translate(46.053 16.553)" fill="none" stroke="#000" stroke-miterlimit="10" stroke-width="1"/>
          <path id="패스_4328" data-name="패스 4328" d="M88.042,61.243l-7.691-2.8.974-14.537,7.691,2.8Z" transform="translate(-62.108 -33.94)" fill="#e8e6e3"/>
          <path id="패스_4329" data-name="패스 4329" d="M88.042,61.243l-7.691-2.8.974-14.537,7.691,2.8Z" transform="translate(-62.108 -33.94)" fill="none" stroke="#000" stroke-miterlimit="10" stroke-width="1"/>
          <path id="패스_4330" data-name="패스 4330" d="M114.223,65.083l11.705-1.668.974-14.537L115.2,50.546Z" transform="translate(-88.289 -37.78)" fill="#e8e6e3"/>
          <path id="패스_4331" data-name="패스 4331" d="M114.223,65.083l11.705-1.668.974-14.537L115.2,50.546Z" transform="translate(-88.289 -37.78)" fill="none" stroke="#000" stroke-miterlimit="10" stroke-width="1"/>
          <path id="패스_4332" data-name="패스 4332" d="M81,51.263l-1.8-.273a.753.753,0,0,1-.629-.854l.03-.2a.752.752,0,0,1,.854-.629l1.8.273a.752.752,0,0,1,.629.854l-.03.2a.752.752,0,0,1-.854.629" transform="translate(-60.725 -38.108)" fill="#f3d5bd"/>
          <path id="패스_4333" data-name="패스 4333" d="M81,51.263l-1.8-.273a.753.753,0,0,1-.629-.854l.03-.2a.752.752,0,0,1,.854-.629l1.8.273a.752.752,0,0,1,.629.854l-.03.2A.752.752,0,0,1,81,51.263Z" transform="translate(-60.725 -38.108)" fill="none" stroke="#000" stroke-miterlimit="10" stroke-width="1"/>
          <path id="패스_4334" data-name="패스 4334" d="M77.75,72.317l-1.8-.273a.753.753,0,0,1-.629-.854l.03-.2a.752.752,0,0,1,.854-.629l1.8.273a.752.752,0,0,1,.629.854l-.03.2a.752.752,0,0,1-.854.629" transform="translate(-58.214 -54.381)" fill="#f3d5bd"/>
          <path id="패스_4335" data-name="패스 4335" d="M77.75,72.317l-1.8-.273a.753.753,0,0,1-.629-.854l.03-.2a.752.752,0,0,1,.854-.629l1.8.273a.752.752,0,0,1,.629.854l-.03.2A.752.752,0,0,1,77.75,72.317Z" transform="translate(-58.214 -54.381)" fill="none" stroke="#000" stroke-miterlimit="10" stroke-width="1"/>
          <path id="패스_4336" data-name="패스 4336" d="M79.664,58.167l-2.3-.35a.753.753,0,0,1-.629-.854l.03-.2a.752.752,0,0,1,.854-.629l2.3.35a.752.752,0,0,1,.629.854l-.03.2a.752.752,0,0,1-.854.629" transform="translate(-59.303 -43.385)" fill="#f3d5bd"/>
          <path id="패스_4337" data-name="패스 4337" d="M79.664,58.167l-2.3-.35a.753.753,0,0,1-.629-.854l.03-.2a.752.752,0,0,1,.854-.629l2.3.35a.752.752,0,0,1,.629.854l-.03.2A.752.752,0,0,1,79.664,58.167Z" transform="translate(-59.303 -43.385)" fill="none" stroke="#000" stroke-miterlimit="10" stroke-width="1"/>
          <path id="패스_4338" data-name="패스 4338" d="M78.127,65.151l-2.559-.389a.753.753,0,0,1-.629-.854l.03-.2a.752.752,0,0,1,.854-.629l2.559.389a.752.752,0,0,1,.629.854l-.03.2a.752.752,0,0,1-.854.629" transform="translate(-57.917 -48.753)" fill="#f3d5bd"/>
          <path id="사각형_3969" data-name="사각형 3969" d="M.849,0h0A.849.849,0,0,1,1.7.849V3.24a.849.849,0,0,1-.849.849h0A.849.849,0,0,1,0,3.239V.849A.849.849,0,0,1,.849,0Z" transform="matrix(0.15, -0.989, 0.989, 0.15, 16.909, 15.896)" fill="none" stroke="#000" stroke-miterlimit="10" stroke-width="1"/>
          <path id="패스_4339" data-name="패스 4339" d="M11.648,146l-8.636,1.15L.574,132.23a5.8,5.8,0,0,1,6.505,4.094l1.035,2.86,3.51-.126" transform="translate(-0.444 -102.148)" fill="#f8f4ee"/>
          <path id="패스_4340" data-name="패스 4340" d="M11.648,146l-8.636,1.15L.574,132.23a5.8,5.8,0,0,1,6.505,4.094l1.035,2.86,3.51-.126" transform="translate(-0.444 -102.148)" fill="none" stroke="#000" stroke-miterlimit="10" stroke-width="1"/>
          <path id="패스_4341" data-name="패스 4341" d="M80.752,118.268l.157,1.386a10.217,10.217,0,0,1-9.039,11.272l-32.488,5.018L37.8,125.494Z" transform="translate(-29.217 -91.415)" fill="#dfbb36"/>
          <path id="패스_4342" data-name="패스 4342" d="M67.465,129.292l-29.383,4.724L39.6,144.464" transform="translate(-29.436 -99.936)" fill="none" stroke="#000" stroke-miterlimit="10" stroke-width="1"/>
          <path id="패스_4343" data-name="패스 4343" d="M119.346,62.416l-2.726-1.087.036.027c-1.285-.607-3.486-1.187-4.354-2.051a.657.657,0,0,1-.116-.145.408.408,0,0,1,.292-.6l.014-.044a1.113,1.113,0,0,1-.348-.593.423.423,0,0,1,.265-.521.368.368,0,0,1,.259-.054l.039,0a.531.531,0,0,1-.376-.577.687.687,0,0,1,.472-.538c.134-.044.277-.052.414-.088.053-.014.119-.029.157.011l-.039-.047a.519.519,0,0,1-.048-.571.833.833,0,0,1,.462-.375,2.244,2.244,0,0,1,.6-.107,13.5,13.5,0,0,1,3.237.109l.036,0a.671.671,0,0,1-.025-1.119.867.867,0,0,1,.616-.123,1.949,1.949,0,0,1,.6.215,10.59,10.59,0,0,1,1.85,1.311c.351.289.7.583,1.05.871l-.005.015,14.845,6.481a3.777,3.777,0,1,1-3.247,6.816Z" transform="translate(-86.67 -41.676)" fill="#f2d6c1"/>
          <path id="패스_4344" data-name="패스 4344" d="M119.346,62.416l-2.726-1.087.036.027c-1.285-.607-3.486-1.187-4.354-2.051a.657.657,0,0,1-.116-.145.408.408,0,0,1,.292-.6l.014-.044a1.113,1.113,0,0,1-.348-.593.423.423,0,0,1,.265-.521.368.368,0,0,1,.259-.054l.039,0a.531.531,0,0,1-.376-.577.687.687,0,0,1,.472-.538c.134-.044.277-.052.414-.088.053-.014.119-.029.157.011l-.039-.047a.519.519,0,0,1-.048-.571.833.833,0,0,1,.462-.375,2.244,2.244,0,0,1,.6-.107,13.5,13.5,0,0,1,3.237.109l.036,0a.671.671,0,0,1-.025-1.119.867.867,0,0,1,.616-.123,1.949,1.949,0,0,1,.6.215,10.59,10.59,0,0,1,1.85,1.311c.351.289.7.583,1.05.871l-.005.015,14.845,6.481a3.777,3.777,0,1,1-3.247,6.816Z" transform="translate(-86.67 -41.676)" fill="none" stroke="#000" stroke-miterlimit="10" stroke-width="1"/>
          <path id="패스_4345" data-name="패스 4345" d="M137.682,59.481l-2.368-.419" transform="translate(-104.591 -45.652)" fill="#f2d6c1"/>
          <path id="패스_4346" data-name="패스 4346" d="M137.682,59.481l-2.368-.419" transform="translate(-104.591 -45.652)" fill="none" stroke="#000" stroke-miterlimit="10" stroke-width="1"/>
          <path id="패스_4347" data-name="패스 4347" d="M116.111,63.534c.95.125,2.159.318,3.1.485a1.425,1.425,0,0,1,.467.14" transform="translate(-89.748 -49.109)" fill="#f2d6c1"/>
          <path id="패스_4348" data-name="패스 4348" d="M116.111,63.534c.95.125,2.159.318,3.1.485a1.425,1.425,0,0,1,.467.14" transform="translate(-89.748 -49.109)" fill="none" stroke="#000" stroke-miterlimit="10" stroke-width="1"/>
          <path id="패스_4349" data-name="패스 4349" d="M112.982,68.79a15.733,15.733,0,0,1,4.013.753" transform="translate(-87.329 -53.171)" fill="#f2d6c1"/>
          <path id="패스_4350" data-name="패스 4350" d="M112.982,68.79a15.733,15.733,0,0,1,4.013.753" transform="translate(-87.329 -53.171)" fill="none" stroke="#000" stroke-miterlimit="10" stroke-width="1"/>
          <path id="패스_4351" data-name="패스 4351" d="M112.388,74.038c.984.106,2.268.306,3.243.475a1.98,1.98,0,0,1,.842.285" transform="translate(-86.87 -57.228)" fill="#f2d6c1"/>
          <path id="패스_4352" data-name="패스 4352" d="M112.388,74.038c.984.106,2.268.306,3.243.475a1.98,1.98,0,0,1,.842.285" transform="translate(-86.87 -57.228)" fill="none" stroke="#000" stroke-miterlimit="10" stroke-width="1"/>
        </g>
      </g>
    </g>
  </g>
</svg>
