<svg id="그룹_5219" data-name="그룹 5219" xmlns="http://www.w3.org/2000/svg" xmlns:xlink="http://www.w3.org/1999/xlink" width="81.317" height="89.972" viewBox="0 0 81.317 89.972">
  <defs>
    <clipPath id="clip-path">
      <rect id="사각형_3942" data-name="사각형 3942" width="81.317" height="89.972" fill="none"/>
    </clipPath>
  </defs>
  <path id="패스_3841" data-name="패스 3841" d="M60.68,65.211l51.511,13.811-.255-64.558L60.425.653Z" transform="translate(-47.852 -0.517)" fill="#e8e6e3"/>
  <g id="그룹_5145" data-name="그룹 5145">
    <g id="그룹_5144" data-name="그룹 5144" clip-path="url(#clip-path)">
      <path id="패스_3842" data-name="패스 3842" d="M60.68,65.211l51.511,13.811-.255-64.558L60.425.653Z" transform="translate(-47.852 -0.517)" fill="none" stroke="#000" stroke-miterlimit="10" stroke-width="1"/>
    </g>
  </g>
  <path id="패스_3843" data-name="패스 3843" d="M99.033,21.526,45.006,6.975l.255,64.558" transform="translate(-35.641 -5.523)" fill="#fff"/>
  <path id="패스_3844" data-name="패스 3844" d="M99.033,21.526,45.006,6.975l.255,64.558" transform="translate(-35.641 -5.523)" fill="none" stroke="#000" stroke-miterlimit="10" stroke-width="1"/>
  <path id="패스_3845" data-name="패스 3845" d="M86.064,31.4,31.135,16.766l.255,64.558" transform="translate(-24.656 -13.278)" fill="#fff"/>
  <path id="패스_3846" data-name="패스 3846" d="M86.064,31.4,31.135,16.766l.255,64.558" transform="translate(-24.656 -13.278)" fill="none" stroke="#000" stroke-miterlimit="10" stroke-width="1"/>
  <path id="패스_3847" data-name="패스 3847" d="M70.041,37.171,14.373,22.089l.255,64.558" transform="translate(-11.383 -17.493)" fill="#fff"/>
  <path id="패스_3848" data-name="패스 3848" d="M70.041,37.171,14.373,22.089l.255,64.558" transform="translate(-11.383 -17.493)" fill="none" stroke="#000" stroke-miterlimit="10" stroke-width="1"/>
  <g id="그룹_5147" data-name="그룹 5147">
    <g id="그룹_5146" data-name="그룹 5146" clip-path="url(#clip-path)">
      <path id="패스_3849" data-name="패스 3849" d="M247.281,72.714c6.35.893,12.364-1.654,12.364-6.405l.545,64.584c0,4.751-6.014,7.3-12.364,6.405" transform="translate(-195.828 -52.512)" fill="#4b747a"/>
      <path id="패스_3850" data-name="패스 3850" d="M247.281,72.714c6.35.893,12.364-1.654,12.364-6.405l.545,64.584c0,4.751-6.014,7.3-12.364,6.405" transform="translate(-195.828 -52.512)" fill="none" stroke="#000" stroke-miterlimit="10" stroke-width="1"/>
      <path id="패스_3851" data-name="패스 3851" d="M.757,94.807l51.511,13.811L52.013,44.06.5,30.249Z" transform="translate(-0.398 -23.955)" fill="#4b747a"/>
      <path id="패스_3852" data-name="패스 3852" d="M.757,94.807l51.511,13.811L52.013,44.06.5,30.249Z" transform="translate(-0.398 -23.955)" fill="none" stroke="#000" stroke-miterlimit="10" stroke-width="1"/>
      <path id="패스_3853" data-name="패스 3853" d="M280.235,264.061l-.674-10.014,9.41-.633.912,13.559a6,6,0,0,1-5.583,6.389l-14.745.992-.632-9.4Z" transform="translate(-212.967 -200.685)" fill="#372d2e"/>
      <path id="패스_3854" data-name="패스 3854" d="M292.517,178.908l-.008-.135-18.965,1.276-.557-19.913,13.788-.927Z" transform="translate(-216.185 -126.081)" fill="#ecb6c5"/>
      <line id="선_756" data-name="선 756" y1="1.246" x2="18.509" transform="translate(57.428 52.671)" fill="none" stroke="#000" stroke-miterlimit="10" stroke-width="1"/>
      <path id="패스_3855" data-name="패스 3855" d="M368.071,254.559h-.016l.015.135Z" transform="translate(-291.472 -201.591)" fill="#e69646"/>
      <line id="선_757" data-name="선 757" x2="4.291" y2="15.256" transform="translate(72.007 37.379)" fill="none" stroke="#000" stroke-miterlimit="10" stroke-width="1"/>
      <path id="패스_3856" data-name="패스 3856" d="M249.682,321.576l-5.358.361.846,12.568a4.836,4.836,0,0,0,4.5-4.554l.3-2.517" transform="translate(-193.486 -254.664)" fill="#f8f4ee"/>
      <path id="패스_3857" data-name="패스 3857" d="M249.682,321.576l-5.358.361.846,12.568a4.836,4.836,0,0,0,4.5-4.554l.3-2.517" transform="translate(-193.486 -254.664)" fill="none" stroke="#000" stroke-miterlimit="10" stroke-width="1"/>
      <path id="패스_3858" data-name="패스 3858" d="M284.431,405.048l.361,5.358,12.66.033-.091-.879a4.836,4.836,0,0,0-4.554-4.5l-2.517-.3" transform="translate(-225.248 -320.538)" fill="#f8f4ee"/>
      <path id="패스_3859" data-name="패스 3859" d="M284.431,405.048l.361,5.358,12.674-.014-.105-.832a4.836,4.836,0,0,0-4.554-4.5l-2.517-.3" transform="translate(-225.248 -320.538)" fill="none" stroke="#000" stroke-miterlimit="10" stroke-width="1"/>
      <path id="패스_3860" data-name="패스 3860" d="M289.749,269.383a6,6,0,0,1-5.583,6.389l-14.78.995-.632-9.4,11.346-.9-.674-10.014" transform="translate(-212.833 -203.095)" fill="none" stroke="#000" stroke-miterlimit="10" stroke-width="1"/>
      <path id="패스_3861" data-name="패스 3861" d="M279.917,287.15l9.5-.639L288.5,255.79l-9.66.659Z" transform="translate(-220.821 -202.567)" fill="#372d2e"/>
      <path id="패스_3862" data-name="패스 3862" d="M278.842,259.019l1.148,30.544,9.5-.639" transform="translate(-220.822 -205.123)" fill="none" stroke="#000" stroke-miterlimit="10" stroke-width="1"/>
      <line id="선_758" data-name="선 758" x1="0.867" y1="27.081" transform="translate(67.764 56.369)" fill="none" stroke="#000" stroke-miterlimit="10" stroke-width="1"/>
      <path id="패스_3863" data-name="패스 3863" d="M284.081,124.041a3.517,3.517,0,1,0,4.9-.858,3.517,3.517,0,0,0-4.9.858" transform="translate(-224.465 -97.046)"/>
      <path id="패스_3864" data-name="패스 3864" d="M287.267,128.468a2.992,2.992,0,1,0,4.168-.73,2.992,2.992,0,0,0-4.168.73" transform="translate(-227.063 -100.729)" fill="#f2d6c1"/>
      <circle id="타원_527" data-name="타원 527" cx="2.992" cy="2.992" r="2.992" transform="translate(59.568 26.561) rotate(-1.793)" fill="none" stroke="#000" stroke-miterlimit="10" stroke-width="1"/>
      <path id="패스_3865" data-name="패스 3865" d="M308.048,137.416l.177,1.563-.43.027" transform="translate(-243.751 -108.823)" fill="none" stroke="#000" stroke-miterlimit="10" stroke-width="1"/>
      <line id="선_759" data-name="선 759" x1="0.558" y2="0.134" transform="translate(63.255 28.459)" fill="none" stroke="#000" stroke-miterlimit="10" stroke-width="1"/>
      <line id="선_760" data-name="선 760" x2="0.532" y2="0.004" transform="translate(64.629 28.414)" fill="none" stroke="#000" stroke-miterlimit="10" stroke-width="1"/>
      <path id="패스_3866" data-name="패스 3866" d="M311.6,141.271a.108.108,0,1,0,.15-.026.108.108,0,0,0-.15.026" transform="translate(-246.75 -111.84)"/>
      <path id="패스_3867" data-name="패스 3867" d="M304.364,141.262a.108.108,0,1,0,.15-.026.108.108,0,0,0-.15.026" transform="translate(-241.018 -111.832)"/>
      <path id="패스_3868" data-name="패스 3868" d="M303.386,144.919a.432.432,0,1,0,.707.5" transform="translate(-240.19 -114.765)" fill="none" stroke="#000" stroke-miterlimit="10" stroke-width="1"/>
      <path id="패스_3869" data-name="패스 3869" d="M285.289,128.329a3.72,3.72,0,0,0,4.178-2.421,1.451,1.451,0,0,0-1.974-.682c-1.31.653-2.2,3.1-2.2,3.1" transform="translate(-225.927 -99.027)"/>
      <path id="패스_3870" data-name="패스 3870" d="M293.973,138.4a.617.617,0,1,0-.806.764" transform="translate(-231.85 -109.265)" fill="#f2d6c1"/>
      <path id="패스_3871" data-name="패스 3871" d="M293.973,138.4a.617.617,0,1,0-.806.764" transform="translate(-231.85 -109.265)" fill="none" stroke="#000" stroke-miterlimit="10" stroke-width="1"/>
      <line id="선_761" data-name="선 761" x1="0.323" y2="0.245" transform="translate(61.292 29.024)" fill="none" stroke="#000" stroke-miterlimit="10" stroke-width="1"/>
      <path id="패스_3872" data-name="패스 3872" d="M309.786,167.659l-8.609-1.649.807-12.048,8.609,1.649Z" transform="translate(-238.509 -121.925)" fill="#e8e6e3"/>
      <path id="패스_3873" data-name="패스 3873" d="M309.786,167.659l-8.609-1.649.807-12.048,8.609,1.649Z" transform="translate(-238.509 -121.925)" fill="none" stroke="#000" stroke-miterlimit="10" stroke-width="1"/>
      <path id="패스_3874" data-name="패스 3874" d="M342.551,166.1l7.467-2.06.807-12.048-7.467,2.06Z" transform="translate(-271.275 -120.364)" fill="#e8e6e3"/>
      <path id="패스_3875" data-name="패스 3875" d="M342.551,166.1l7.467-2.06.807-12.048-7.467,2.06Z" transform="translate(-271.275 -120.364)" fill="none" stroke="#000" stroke-miterlimit="10" stroke-width="1"/>
      <path id="패스_3876" data-name="패스 3876" d="M374.588,179.571a3.522,3.522,0,0,0,2-1.5,6.576,6.576,0,0,0,.239-1.7,24.5,24.5,0,0,0-.055-2.909,1.089,1.089,0,0,0-.075-.374,1.046,1.046,0,0,0-.435-.412q-.316-.194-.649-.358a1.959,1.959,0,0,0-.649-.22.789.789,0,0,0-.638.192.5.5,0,0,0-.079.627l.041.026a.6.6,0,0,0-.63.453.87.87,0,0,0,.229.783l-.009.052a.371.371,0,0,0-.318.134.766.766,0,0,0-.236.354.486.486,0,0,0,.236.531l.015,0a.827.827,0,0,0-.139.689,1.93,1.93,0,0,0,.305.654c.145.22.768,1.008.94,1.207" transform="translate(-295.634 -136.281)" fill="#f2d6c1"/>
      <path id="패스_3877" data-name="패스 3877" d="M374.588,179.571a3.522,3.522,0,0,0,2-1.5,6.576,6.576,0,0,0,.239-1.7,24.5,24.5,0,0,0-.055-2.909,1.089,1.089,0,0,0-.075-.374,1.046,1.046,0,0,0-.435-.412q-.316-.194-.649-.358a1.959,1.959,0,0,0-.649-.22.789.789,0,0,0-.638.192.5.5,0,0,0-.079.627l.041.026a.6.6,0,0,0-.63.453.87.87,0,0,0,.229.783l-.009.052a.371.371,0,0,0-.318.134.766.766,0,0,0-.236.354.486.486,0,0,0,.236.531l.015,0a.827.827,0,0,0-.139.689,1.93,1.93,0,0,0,.305.654c.145.22.768,1.008.94,1.207" transform="translate(-295.634 -136.281)" fill="none" stroke="#000" stroke-miterlimit="10" stroke-width="1"/>
      <path id="패스_3878" data-name="패스 3878" d="M376.271,188.688l-1.172-1.274a2.7,2.7,0,0,0-.545-.494.522.522,0,0,0-.254-.094c-.1,0-.452.05-.468.229" transform="translate(-296.046 -147.953)" fill="#f2d6c1"/>
      <path id="패스_3879" data-name="패스 3879" d="M376.271,188.688l-1.172-1.274a2.7,2.7,0,0,0-.545-.494.522.522,0,0,0-.254-.094c-.1,0-.452.05-.468.229" transform="translate(-296.046 -147.953)" fill="none" stroke="#000" stroke-miterlimit="10" stroke-width="1"/>
      <path id="패스_3880" data-name="패스 3880" d="M378.2,183.626a19.906,19.906,0,0,0-1.91-1.472,1.327,1.327,0,0,0-.2-.093" transform="translate(-297.833 -144.179)" fill="#f2d6c1"/>
      <path id="패스_3881" data-name="패스 3881" d="M378.2,183.626a19.906,19.906,0,0,0-1.91-1.472,1.327,1.327,0,0,0-.2-.093" transform="translate(-297.833 -144.179)" fill="none" stroke="#000" stroke-miterlimit="10" stroke-width="1"/>
      <path id="패스_3882" data-name="패스 3882" d="M379.73,177.462l-1.39-.958a1.4,1.4,0,0,0-.679-.315" transform="translate(-299.08 -139.528)" fill="#f2d6c1"/>
      <path id="패스_3883" data-name="패스 3883" d="M379.73,177.462l-1.39-.958a1.4,1.4,0,0,0-.679-.315" transform="translate(-299.08 -139.528)" fill="none" stroke="#000" stroke-miterlimit="10" stroke-width="1"/>
      <path id="패스_3884" data-name="패스 3884" d="M247,163.329l-.8.077-6.142,11.982a5.641,5.641,0,0,0,6.9,7.892Z" transform="translate(-189.601 -129.344)" fill="#ecb6c5"/>
      <path id="패스_3885" data-name="패스 3885" d="M245.737,194.544a3.661,3.661,0,0,1,1.506-5.163l12.735-6.487-.006-.014c.308-.3.612-.6.921-.9a10,10,0,0,1,1.64-1.376,1.84,1.84,0,0,1,.551-.249.819.819,0,0,1,.589.068.633.633,0,0,1,.063,1.055h.034a12.749,12.749,0,0,1,3.038-.353,2.124,2.124,0,0,1,.571.055.788.788,0,0,1,.464.318.489.489,0,0,1,0,.541l-.033.047c.033-.041.1-.031.147-.022.131.023.267.019.4.051a.649.649,0,0,1,.486.47.5.5,0,0,1-.31.572l.037-.006a.346.346,0,0,1,.248.031.4.4,0,0,1,.29.469,1.05,1.05,0,0,1-.281.585l.017.04a.385.385,0,0,1,.321.538.621.621,0,0,1-.1.145c-.75.88-2.777,1.6-3.94,2.266l.032-.028-14.379,8.593a3.661,3.661,0,0,1-5.037-1.244" transform="translate(-194.19 -142.807)" fill="#f2d6c1"/>
      <path id="패스_3886" data-name="패스 3886" d="M245.737,194.544a3.661,3.661,0,0,1,1.506-5.163l12.735-6.487-.006-.014c.308-.3.612-.6.921-.9a10,10,0,0,1,1.64-1.376,1.84,1.84,0,0,1,.551-.249.819.819,0,0,1,.589.068.633.633,0,0,1,.063,1.055h.034a12.749,12.749,0,0,1,3.038-.353,2.124,2.124,0,0,1,.571.055.788.788,0,0,1,.464.318.489.489,0,0,1,0,.541l-.033.047c.033-.041.1-.031.147-.022.131.023.267.019.4.051a.649.649,0,0,1,.486.47.5.5,0,0,1-.31.572l.037-.006a.346.346,0,0,1,.248.031.4.4,0,0,1,.29.469,1.05,1.05,0,0,1-.281.585l.017.04a.385.385,0,0,1,.321.538.621.621,0,0,1-.1.145c-.75.88-2.777,1.6-3.94,2.266l.032-.028-14.379,8.593A3.661,3.661,0,0,1,245.737,194.544Z" transform="translate(-194.19 -142.807)" fill="none" stroke="#000" stroke-miterlimit="10" stroke-width="1"/>
      <path id="패스_3887" data-name="패스 3887" d="M324.68,185.956l2.2-.577" transform="translate(-257.122 -146.806)" fill="#f2d6c1"/>
      <path id="패스_3888" data-name="패스 3888" d="M324.68,185.956l2.2-.577" transform="translate(-257.122 -146.806)" fill="none" stroke="#000" stroke-miterlimit="10" stroke-width="1"/>
      <path id="패스_3889" data-name="패스 3889" d="M342.73,188.353c-.884.191-2.008.466-2.882.7a1.345,1.345,0,0,0-.428.168" transform="translate(-268.794 -149.161)" fill="#f2d6c1"/>
      <path id="패스_3890" data-name="패스 3890" d="M342.73,188.353c-.884.191-2.008.466-2.882.7a1.345,1.345,0,0,0-.428.168" transform="translate(-268.794 -149.161)" fill="none" stroke="#000" stroke-miterlimit="10" stroke-width="1"/>
      <path id="패스_3891" data-name="패스 3891" d="M344.834,193.486a14.853,14.853,0,0,0-3.718,1.019" transform="translate(-270.138 -153.226)" fill="#f2d6c1"/>
      <path id="패스_3892" data-name="패스 3892" d="M344.834,193.486a14.853,14.853,0,0,0-3.718,1.019" transform="translate(-270.138 -153.226)" fill="none" stroke="#000" stroke-miterlimit="10" stroke-width="1"/>
      <path id="패스_3893" data-name="패스 3893" d="M345.629,198.826c-.918.176-2.11.463-3.015.7a1.868,1.868,0,0,0-.771.334" transform="translate(-270.714 -157.455)" fill="#f2d6c1"/>
      <path id="패스_3894" data-name="패스 3894" d="M345.629,198.826c-.918.176-2.11.463-3.015.7a1.868,1.868,0,0,0-.771.334" transform="translate(-270.714 -157.455)" fill="none" stroke="#000" stroke-miterlimit="10" stroke-width="1"/>
    </g>
  </g>
</svg>
