<svg xmlns="http://www.w3.org/2000/svg" width="100.741" height="92.61" viewBox="0 0 100.741 92.61">
  <g id="그룹_5218" data-name="그룹 5218" transform="translate(0.66)">
    <g id="그룹_5214" data-name="그룹 5214" transform="translate(0)">
      <rect id="사각형_3957" data-name="사각형 3957" width="72.361" height="48.934" rx="11.143" transform="translate(27.251 43.207)" fill="#25282b" stroke="#000" stroke-miterlimit="10" stroke-width="0.939"/>
      <path id="패스_4081" data-name="패스 4081" d="M189.624,189.627a13.845,13.845,0,1,1-13.613-14.072,13.844,13.844,0,0,1,13.613,14.072" transform="translate(-113.441 -122.764)" fill="#ca5255"/>
      <path id="패스_4082" data-name="패스 4082" d="M189.624,189.627a13.845,13.845,0,1,1-13.613-14.072A13.844,13.844,0,0,1,189.624,189.627Z" transform="translate(-113.441 -122.764)" fill="none" stroke="#000" stroke-miterlimit="10" stroke-width="0.939"/>
      <path id="패스_4083" data-name="패스 4083" d="M190.81,204.143l13.367,7.425-.254-15.289Z" transform="translate(-135.73 -137.958)" fill="#f0e9d9"/>
      <path id="패스_4084" data-name="패스 4084" d="M190.81,204.143l13.367,7.425-.254-15.289Z" transform="translate(-135.73 -137.958)" fill="none" stroke="#000" stroke-miterlimit="10" stroke-width="0.939"/>
      <path id="패스_4085" data-name="패스 4085" d="M46.776,193.961v7.5h-17.6a6.757,6.757,0,0,1,5.926-6.706l3.724-.432v-3.7" transform="translate(-20.601 -133.309)" fill="#f8f4ee"/>
      <path id="패스_4086" data-name="패스 4086" d="M46.776,193.961v7.5h-17.6a6.757,6.757,0,0,1,5.926-6.706l3.724-.432v-3.7" transform="translate(-20.601 -133.309)" fill="none" stroke="#000" stroke-miterlimit="10" stroke-width="0.939"/>
      <path id="패스_4087" data-name="패스 4087" d="M90.958,123.626,72.219,113.556l-2.466-.044-9.206-3.053-9.867,23.405,11.913,5.109,6.439-15.347Z" transform="translate(-35.638 -77.244)" fill="#bfc8bd"/>
      <path id="패스_4088" data-name="패스 4088" d="M135.611,62.531v-.159l21.356.87-1.678-21.266a3.171,3.171,0,0,0-3.161-2.922H141.515a3.607,3.607,0,0,0-3.583,3.2Z" transform="translate(-95.03 -27.311)" fill="#202f8b"/>
      <path id="패스_4089" data-name="패스 4089" d="M17.783,122.083l-5.94,4.767L.659,112.916a6.86,6.86,0,0,1,9.075.431l2.728,2.342L16,113.518" transform="translate(-0.659 -77.906)" fill="#f8f4ee"/>
      <path id="패스_4090" data-name="패스 4090" d="M17.783,122.083l-5.94,4.767L.659,112.916a6.86,6.86,0,0,1,9.075.431l2.728,2.342L16,113.518" transform="translate(-0.659 -77.906)" fill="none" stroke="#000" stroke-miterlimit="10" stroke-width="0.939"/>
      <path id="패스_4091" data-name="패스 4091" d="M89.032,92.64A7.21,7.21,0,0,0,85.67,82.369L59.324,71.515,37.9,85.839l7.407,10.906,14.58-9.926,19.959,9.019A7.639,7.639,0,0,0,89.032,92.64Z" transform="translate(-26.702 -50.011)" fill="#bfc8bd"/>
      <path id="패스_4092" data-name="패스 4092" d="M62.926,126.22l4.344-9.592a7.027,7.027,0,0,1,9.209-3.532l19.764,10.69" transform="translate(-44.202 -78.676)" fill="none" stroke="#000" stroke-miterlimit="10" stroke-width="0.939"/>
      <path id="패스_4093" data-name="패스 4093" d="M124.953,43.677l-4.034,5.031-4.913,2.909,7.575,4.337Z" transform="translate(-81.321 -30.543)" fill="#202f8b"/>
      <path id="패스_4094" data-name="패스 4094" d="M76.649,51.9H52.632L47.788,32.93H71.805Z" transform="translate(-33.616 -23.028)"/>
      <rect id="사각형_3958" data-name="사각형 3958" width="28.739" height="2.438" transform="translate(26.312 26.435)"/>
      <path id="패스_4095" data-name="패스 4095" d="M88.911,56.975a3.135,3.135,0,1,1-3.135-3.135,3.135,3.135,0,0,1,3.135,3.135" transform="translate(-57.989 -37.65)" fill="#fff"/>
      <path id="패스_4096" data-name="패스 4096" d="M182.837,45.292l5.263,16.19a3.961,3.961,0,0,1-3.549,5.2h-6.386a2.852,2.852,0,0,1-2.852-2.852V58.22Z" transform="translate(-122.795 -31.673)" fill="#202f8b"/>
      <path id="패스_4097" data-name="패스 4097" d="M121.814,95.632l-2.744.152.041.009c-1.331-.009-3.429.366-4.507-.026a.62.62,0,0,1-.155-.078.382.382,0,0,1,.013-.621l0-.043a1.043,1.043,0,0,1-.529-.367.463.463,0,0,1-.09-.175.472.472,0,0,1,.11-.372.344.344,0,0,1,.2-.148l.035-.013a.5.5,0,0,1-.547-.342.642.642,0,0,1,.189-.643c.1-.091.215-.153.317-.238.04-.033.089-.072.137-.053l-.051-.024a.485.485,0,0,1-.266-.466.78.78,0,0,1,.244-.5,2.1,2.1,0,0,1,.466-.327,12.652,12.652,0,0,1,2.793-1.184l.029-.017a.628.628,0,0,1-.463-.94.812.812,0,0,1,.475-.347,1.816,1.816,0,0,1,.6-.055,9.909,9.909,0,0,1,2.089.384c.412.106.823.22,1.235.326l0,.015,15.165-.346a3.537,3.537,0,1,1-.071,7.07Z" transform="translate(-79.645 -62.106)" fill="#f2d6c1"/>
      <path id="패스_4098" data-name="패스 4098" d="M121.814,95.632l-2.744.152.041.009c-1.331-.009-3.429.366-4.507-.026a.62.62,0,0,1-.155-.078.382.382,0,0,1,.013-.621l0-.043a1.043,1.043,0,0,1-.529-.367.463.463,0,0,1-.09-.175.472.472,0,0,1,.11-.372.344.344,0,0,1,.2-.148l.035-.013a.5.5,0,0,1-.547-.342.642.642,0,0,1,.189-.643c.1-.091.215-.153.317-.238.04-.033.089-.072.137-.053l-.051-.024a.485.485,0,0,1-.266-.466.78.78,0,0,1,.244-.5,2.1,2.1,0,0,1,.466-.327,12.652,12.652,0,0,1,2.793-1.184l.029-.017a.628.628,0,0,1-.463-.94.812.812,0,0,1,.475-.347,1.816,1.816,0,0,1,.6-.055,9.909,9.909,0,0,1,2.089.384c.412.106.823.22,1.235.326l0,.015,15.165-.346a3.537,3.537,0,1,1-.071,7.07Z" transform="translate(-79.645 -62.106)" fill="none" stroke="#000" stroke-miterlimit="10" stroke-width="0.939"/>
      <path id="패스_4099" data-name="패스 4099" d="M127.943,91.426,125.766,92" transform="translate(-88.146 -63.934)" fill="#f2d6c1"/>
      <path id="패스_4100" data-name="패스 4100" d="M127.943,91.426,125.766,92" transform="translate(-88.146 -63.934)" fill="none" stroke="#000" stroke-miterlimit="10" stroke-width="0.939"/>
      <path id="패스_4101" data-name="패스 4101" d="M114.781,99.888c.856-.268,1.96-.582,2.827-.811a1.335,1.335,0,0,1,.452-.065" transform="translate(-80.465 -69.237)" fill="#f2d6c1"/>
      <path id="패스_4102" data-name="패스 4102" d="M114.781,99.888c.856-.268,1.96-.582,2.827-.811a1.335,1.335,0,0,1,.452-.065" transform="translate(-80.465 -69.237)" fill="none" stroke="#000" stroke-miterlimit="10" stroke-width="0.939"/>
      <path id="패스_4103" data-name="패스 4103" d="M114.339,104.041a14.749,14.749,0,0,1,3.706-.942" transform="translate(-80.156 -72.097)" fill="#f2d6c1"/>
      <path id="패스_4104" data-name="패스 4104" d="M114.339,104.041a14.749,14.749,0,0,1,3.706-.942" transform="translate(-80.156 -72.097)" fill="none" stroke="#000" stroke-miterlimit="10" stroke-width="0.939"/>
      <path id="패스_4105" data-name="패스 4105" d="M115.52,107.488c.878-.3,2.047-.634,2.942-.875a1.85,1.85,0,0,1,.828-.089" transform="translate(-80.981 -74.479)" fill="#f2d6c1"/>
      <path id="패스_4106" data-name="패스 4106" d="M115.52,107.488c.878-.3,2.047-.634,2.942-.875a1.85,1.85,0,0,1,.828-.089" transform="translate(-80.981 -74.479)" fill="none" stroke="#000" stroke-miterlimit="10" stroke-width="0.939"/>
      <line id="선_818" data-name="선 818" y2="4.79" transform="translate(56.626 22.313)" fill="none" stroke="#000" stroke-miterlimit="10" stroke-width="0.939"/>
      <path id="패스_4107" data-name="패스 4107" d="M164.713,4.789a4.495,4.495,0,1,1-6.184-1.469,4.495,4.495,0,0,1,6.184,1.469" transform="translate(-109.562 -1.854)"/>
      <path id="패스_4108" data-name="패스 4108" d="M164.921,8.539a3.824,3.824,0,1,1-5.262-1.25,3.824,3.824,0,0,1,5.262,1.25" transform="translate(-110.577 -4.7)" fill="#f2d6c1"/>
      <path id="패스_4109" data-name="패스 4109" d="M164.921,8.539a3.824,3.824,0,1,1-5.262-1.25A3.824,3.824,0,0,1,164.921,8.539Z" transform="translate(-110.577 -4.7)" fill="none" stroke="#000" stroke-miterlimit="10" stroke-width="0.939"/>
      <path id="패스_4110" data-name="패스 4110" d="M163,15.348l-.345,1.981.547.067" transform="translate(-113.941 -10.733)" fill="none" stroke="#000" stroke-miterlimit="10" stroke-width="0.939"/>
      <line id="선_819" data-name="선 819" x2="0.702" y2="0.214" transform="translate(49.684 4.481)" fill="none" stroke="#000" stroke-miterlimit="10" stroke-width="0.939"/>
      <line id="선_820" data-name="선 820" x1="0.679" y1="0.036" transform="translate(47.969 4.325)" fill="none" stroke="#000" stroke-miterlimit="10" stroke-width="0.939"/>
      <path id="패스_4111" data-name="패스 4111" d="M160.641,18.612a.138.138,0,1,1-.19-.045.138.138,0,0,1,.19.045" transform="translate(-112.356 -12.97)"/>
      <path id="패스_4112" data-name="패스 4112" d="M167.03,18.986a.138.138,0,1,1-.19-.045.138.138,0,0,1,.19.045" transform="translate(-116.824 -13.231)"/>
      <path id="패스_4113" data-name="패스 4113" d="M165.894,22.251a.552.552,0,0,1-.94.579Z" transform="translate(-115.551 -15.56)" fill="none" stroke="#000" stroke-miterlimit="10" stroke-width="0.939"/>
      <path id="패스_4114" data-name="패스 4114" d="M171.638,9.206c-4.221.3-5.557-3.818-5.557-3.818a2.61,2.61,0,0,1,2.982-.309c1.622.933,2.574,4.127,2.574,4.127" transform="translate(-116.339 -3.309)"/>
      <path id="패스_4115" data-name="패스 4115" d="M172.889,17.044a.788.788,0,1,1,.969,1.036" transform="translate(-121.1 -11.565)" fill="#f2d6c1"/>
      <path id="패스_4116" data-name="패스 4116" d="M172.889,17.044a.788.788,0,1,1,.969,1.036" transform="translate(-121.1 -11.565)" fill="none" stroke="#000" stroke-miterlimit="10" stroke-width="0.939"/>
      <line id="선_821" data-name="선 821" x2="0.393" y2="0.337" transform="translate(52.446 5.37)" fill="none" stroke="#000" stroke-miterlimit="10" stroke-width="0.939"/>
      <path id="패스_4117" data-name="패스 4117" d="M165.8,2.567s-.852-1.3-.342-2.047c1.1-1.609,4.11,1.028,4.11,1.028" transform="translate(-115.79 0)"/>
    </g>
  </g>
</svg>
