<svg xmlns="http://www.w3.org/2000/svg" width="19.499" height="18.509" viewBox="0 0 19.499 18.509">
  <g id="그룹_3395" data-name="그룹 3395" transform="translate(-58.25 -702.242)">
    <path id="합치기_6" data-name="합치기 6" d="M12135,4976.1a2,2,0,0,1-2-2v-8.987a1.489,1.489,0,0,1,.04-.362c0-.325.567-.853,1.21-1.15l7.331-4.41a1.007,1.007,0,0,1,.839,0l7.118,4.224a3.405,3.405,0,0,1,1.176.915.984.984,0,0,1,.285.784v8.987a2,2,0,0,1-2,2Z" transform="translate(-12074 -4256.102)" fill="none" stroke="#fff" stroke-width="1.5"/>
    <g id="패스_825" data-name="패스 825" transform="translate(64 713.42)" fill="none" stroke-linecap="round" stroke-linejoin="round">
      <path d="M1.143,0H6.857A1.115,1.115,0,0,1,8,1.085V7.294H0V1.085A1.115,1.115,0,0,1,1.143,0Z" stroke="none"/>
      <path d="M 1.5 1.499996662139893 L 1.5 5.794436931610107 L 6.5 5.794436931610107 L 6.5 1.499996662139893 L 1.5 1.499996662139893 M 1.142859935760498 -3.337860107421875e-06 L 6.857140064239502 -3.337860107421875e-06 C 7.488329887390137 -3.337860107421875e-06 8 0.4859867095947266 8 1.085486888885498 L 8 7.294436931610107 L 0 7.294436931610107 L 0 1.085486888885498 C 0 0.4859867095947266 0.5116701126098633 -3.337860107421875e-06 1.142859935760498 -3.337860107421875e-06 Z" stroke="none" fill="#fff"/>
    </g>
  </g>
</svg>
