<svg xmlns="http://www.w3.org/2000/svg" width="24" height="24" viewBox="0 0 24 24">
  <g id="그룹_588" data-name="그룹 588" transform="translate(-1374 -43)">
    <rect id="사각형_679" data-name="사각형 679" width="24" height="24" transform="translate(1374 43)" fill="#fff"/>
    <path id="Shape" d="M13.5,18H9a9,9,0,1,1,9-9v4.5a7.5,7.5,0,0,1-.228,2.648,2.982,2.982,0,0,1-1.625,1.624A7.476,7.476,0,0,1,13.5,18ZM9,11a1,1,0,0,0,0,2h3a1,1,0,1,0,0-2ZM6,7A1,1,0,0,0,6,9h6a1,1,0,1,0,0-2Z" transform="translate(1377 46)" fill="#37c375"/>
  </g>
</svg>
