<svg xmlns="http://www.w3.org/2000/svg" width="20" height="20" viewBox="0 0 20 20">
  <g id="그룹_861" data-name="그룹 861" transform="translate(-1417 -252)">
    <rect id="사각형_916" data-name="사각형 916" width="20" height="20" transform="translate(1417 252)" fill="none"/>
    <path id="Shape" d="M8.482,16H7.518c-.16,0-.3,0-.416-.008a1.162,1.162,0,0,1-.357-.072,1.143,1.143,0,0,1-.6-.539,1.158,1.158,0,0,1-.108-.348c-.019-.115-.033-.253-.049-.413-.032-.319-.053-.536-.082-.7a.547.547,0,0,0-.067-.221.379.379,0,0,0-.353-.147l-.1-.755a1.143,1.143,0,0,1,1.061.44,1.237,1.237,0,0,1,.21.548c.035.2.06.448.091.755.017.17.028.279.043.363a.354.354,0,0,0,.232.3.4.4,0,0,0,.128.021c.085.005.195.005.365.005h.963c.171,0,.28,0,.365-.005a.413.413,0,0,0,.128-.021.379.379,0,0,0,.2-.18l.677.35a1.145,1.145,0,0,1-.595.539l-.28-.709.28.709a1.17,1.17,0,0,1-.357.072C8.8,16,8.682,16,8.549,16Zm.691-.968a.4.4,0,0,0,.034-.125c.014-.084.025-.193.043-.363.03-.307.056-.559.091-.755a1.24,1.24,0,0,1,.211-.549l.605.462L9.55,13.24a1.142,1.142,0,0,1,1.06-.44,1.26,1.26,0,0,1,.537.239c.163.114.359.274.6.47.132.108.217.178.285.226a.438.438,0,0,0,.113.065.377.377,0,0,0,.267-.014l.3.7a1.143,1.143,0,0,1-.8.04,1.165,1.165,0,0,1-.322-.17c-.095-.067-.2-.156-.327-.257-.248-.2-.416-.341-.55-.433a.574.574,0,0,0-.2-.11.381.381,0,0,0-.354.146.59.59,0,0,0-.067.221c-.029.159-.05.376-.082.7l-.758-.075.758.075c-.016.16-.029.3-.049.413a1.158,1.158,0,0,1-.108.348Zm-5.886-.544a1.17,1.17,0,0,1-.3-.2c-.087-.076-.186-.175-.3-.289L2,13.317c-.114-.114-.213-.213-.289-.3a1.155,1.155,0,0,1-.2-.3,1.143,1.143,0,0,1-.04-.8,1.157,1.157,0,0,1,.17-.322c.067-.095.156-.2.257-.326.2-.248.341-.418.433-.551a.576.576,0,0,0,.11-.2.38.38,0,0,0-.146-.353.567.567,0,0,0-.221-.067c-.16-.028-.377-.051-.7-.082-.16-.016-.3-.029-.413-.049A1.176,1.176,0,0,1,.619,9.85a1.142,1.142,0,0,1-.539-.6A1.16,1.16,0,0,1,.008,8.9C0,8.782,0,8.642,0,8.482V7.519c0-.161,0-.3.008-.416A1.164,1.164,0,0,1,.08,6.745a1.14,1.14,0,0,1,.539-.6,1.15,1.15,0,0,1,.348-.108c.114-.019.252-.033.413-.049.32-.032.536-.053.7-.082A.592.592,0,0,0,2.3,5.845a.38.38,0,0,0,.146-.354.558.558,0,0,0-.11-.2c-.092-.133-.23-.3-.433-.551-.1-.124-.19-.232-.257-.326a1.112,1.112,0,0,1-.13-1.125,1.155,1.155,0,0,1,.2-.3c.076-.088.175-.186.289-.3L2.683,2c.115-.114.213-.213.3-.289a1.172,1.172,0,0,1,.3-.2,1.143,1.143,0,0,1,.8-.04,1.165,1.165,0,0,1,.322.17c.095.067.2.156.327.258l-.482.59c-.133-.108-.218-.178-.287-.227A.4.4,0,0,0,3.856,2.2l.232-.726L3.856,2.2a.379.379,0,0,0-.266.013.424.424,0,0,0-.106.075c-.063.056-.141.133-.262.254l-.68.68c-.121.121-.2.2-.254.263a.441.441,0,0,0-.075.106.381.381,0,0,0-.014.267.407.407,0,0,0,.065.112c.049.069.118.154.226.287.2.238.356.434.47.6A1.237,1.237,0,0,1,3.2,5.39,1.142,1.142,0,0,1,2.759,6.45a1.244,1.244,0,0,1-.549.21c-.2.036-.448.06-.754.091l-.019,0h0c-.159.016-.263.027-.342.04a.456.456,0,0,0-.125.034.383.383,0,0,0-.18.2.417.417,0,0,0-.021.128c-.006.084-.006.194-.006.365v.963c0,.171,0,.28.006.365a.429.429,0,0,0,.021.128.381.381,0,0,0,.18.2.431.431,0,0,0,.125.034c.083.014.192.025.363.042.306.031.558.056.754.091a1.245,1.245,0,0,1,.548.21A1.141,1.141,0,0,1,3.2,10.61a1.233,1.233,0,0,1-.239.536c-.114.164-.274.36-.47.6-.108.132-.178.217-.226.287a.4.4,0,0,0-.065.112.382.382,0,0,0,.014.267.441.441,0,0,0,.075.106c.056.063.133.141.254.262l.68.681c.121.121.2.2.262.254a.416.416,0,0,0,.106.076.379.379,0,0,0,.266.013l.232.726a1.144,1.144,0,0,1-.8-.04Zm.57-.686a.4.4,0,0,0,.113-.064c.069-.049.154-.119.286-.227.238-.195.434-.356.6-.469A1.246,1.246,0,0,1,5.39,12.8l.1.755a.589.589,0,0,0-.2.11c-.132.092-.3.228-.542.427h0l-.006,0L4.5,13.8l.241.295c-.125.1-.232.191-.327.258a1.165,1.165,0,0,1-.322.17ZM4.5,13.8Zm7.913-.017a.441.441,0,0,0,.106-.075c.063-.056.141-.133.262-.254l.539.539c-.115.114-.213.213-.3.289a1.155,1.155,0,0,1-.3.2Zm.368-.33.681-.68.538.538-.68.681Zm.681-.68c.121-.121.2-.2.254-.263a.453.453,0,0,0,.075-.1l.7.3a1.157,1.157,0,0,1-.2.3c-.076.087-.174.185-.289.3Zm.33-.368a.386.386,0,0,0,.014-.267l.725-.232a1.143,1.143,0,0,1-.04.8Zm-.052-.38c-.049-.069-.118-.154-.226-.286l.59-.483c.1.125.191.232.258.326a1.169,1.169,0,0,1,.17.323l-.725.232A.442.442,0,0,0,13.736,12.03Zm-.7-.884a1.26,1.26,0,0,1-.239-.536,1.143,1.143,0,0,1,.44-1.061l.462.605a.383.383,0,0,0-.147.354l-.755.1.755-.1a.576.576,0,0,0,.11.2c.093.133.231.3.433.55l-.59.483C13.315,11.506,13.154,11.31,13.041,11.146ZM4.572,8h.762A2.667,2.667,0,1,0,8,5.333,2.667,2.667,0,0,0,5.333,8H4.572A3.429,3.429,0,1,1,8,11.429,3.428,3.428,0,0,1,4.572,8Zm8.669,1.549a1.247,1.247,0,0,1,.549-.21c.2-.036.448-.06.754-.091.17-.016.28-.028.363-.042a.43.43,0,0,0,.125-.034l.349.677a1.176,1.176,0,0,1-.348.108c-.113.019-.252.033-.413.049l-.038-.379.038.379c-.318.032-.536.053-.695.082a.6.6,0,0,0-.221.066Zm1.341.078v0Zm.45-.455a.379.379,0,0,0,.18-.2l.709.28a1.143,1.143,0,0,1-.54.6Zm.18-.2a.429.429,0,0,0,.021-.128c.006-.084.006-.194.006-.365H16c0,.16,0,.3-.008.416a1.139,1.139,0,0,1-.072.357Zm.027-.493V7.519H16v.963Zm0-.963c0-.171,0-.281-.006-.365a.417.417,0,0,0-.021-.128l.709-.28a1.143,1.143,0,0,1,.072.357c.008.116.008.255.008.416Zm-.206-.692.35-.677a1.146,1.146,0,0,1,.539.6l-.709.28A.383.383,0,0,0,15.031,6.827Zm-.125-.034c-.084-.014-.193-.025-.363-.042l.075-.758-.075.758c-.307-.031-.558-.056-.755-.091a1.245,1.245,0,0,1-.548-.21A1.141,1.141,0,0,1,12.8,5.39a1.238,1.238,0,0,1,.239-.536c.113-.164.274-.359.469-.6l.59.483c-.2.248-.341.417-.433.55a.567.567,0,0,0-.11.2l-.755-.1.755.1a.38.38,0,0,0,.146.354l-.461.605.461-.605a.6.6,0,0,0,.221.066c.16.029.376.051.7.082.16.016.3.03.413.049a1.166,1.166,0,0,1,.349.108l-.35.677A.456.456,0,0,0,14.907,6.793Zm-1.4-2.538c.108-.132.178-.217.226-.286a.443.443,0,0,0,.066-.112h0a.382.382,0,0,0-.013-.267l.7-.3a1.143,1.143,0,0,1,.04.8,1.165,1.165,0,0,1-.17.322c-.067.095-.156.2-.258.327Zm.2-.771c-.056-.064-.134-.141-.254-.263L14,2.683l-.538.539-.681-.681c-.121-.121-.2-.2-.262-.254a.441.441,0,0,0-.106-.075l.3-.7a1.155,1.155,0,0,1,.3.2c.087.076.185.175.3.289l-.539.538L13.317,2l.68.68c.115.114.213.213.289.3a1.157,1.157,0,0,1,.2.3l-.7.3A.453.453,0,0,0,13.713,3.485ZM9.55,2.759l.605-.462a.381.381,0,0,0,.354.146.574.574,0,0,0,.2-.11c.134-.093.3-.23.55-.433.125-.1.232-.19.327-.257a1.11,1.11,0,0,1,1.125-.13l-.3.7a.379.379,0,0,0-.267-.014.428.428,0,0,0-.112.065c-.069.049-.154.118-.286.226-.238.2-.434.356-.6.47a1.259,1.259,0,0,1-.537.239,1.141,1.141,0,0,1-1.06-.439ZM5.39,3.2l.1-.755A.38.38,0,0,0,5.844,2.3a.547.547,0,0,0,.067-.221c.029-.16.05-.376.082-.7.016-.16.029-.3.049-.413A1.158,1.158,0,0,1,6.15.619a1.137,1.137,0,0,1,.6-.539A1.155,1.155,0,0,1,7.1.008C7.218,0,7.358,0,7.518,0V.762c-.17,0-.28,0-.365.006a.422.422,0,0,0-.128.021.379.379,0,0,0-.2.18.387.387,0,0,0-.034.125c-.014.083-.025.192-.043.362-.031.307-.056.559-.091.755a1.247,1.247,0,0,1-.209.548A1.143,1.143,0,0,1,5.39,3.2Zm-.536-.239c-.164-.114-.36-.274-.6-.469l.482-.59c.248.2.417.341.55.433a.589.589,0,0,0,.2.11l-.1.755A1.246,1.246,0,0,1,4.853,2.959Zm4.486-.748c-.035-.2-.06-.448-.091-.754l.758-.076c.032.319.053.536.082.7a.59.59,0,0,0,.067.221l-.605.462A1.24,1.24,0,0,1,9.339,2.211ZM9.206,1.094A.407.407,0,0,0,9.173.968a.381.381,0,0,0-.2-.18L9.255.08A1.139,1.139,0,0,1,9.85.619a1.158,1.158,0,0,1,.108.348c.019.114.033.252.049.413l-.758.076C9.231,1.286,9.221,1.177,9.206,1.094ZM8.846.768C8.762.762,8.652.762,8.482.762V0c.16,0,.3,0,.416.008A1.172,1.172,0,0,1,9.255.08l-.28.708A.424.424,0,0,0,8.846.768ZM7.518.762V0h.963V.762Z" transform="translate(1417 254)" fill="#fff"/>
  </g>
</svg>
