<svg id="그룹_538" data-name="그룹 538" xmlns="http://www.w3.org/2000/svg" width="73.64" height="21.928" viewBox="0 0 73.64 21.928">
  <g id="그룹_537" data-name="그룹 537" transform="translate(0 0)">
    <path id="패스_562" data-name="패스 562" d="M227.009,291.133v-2.8H228.1v2.8h3.979v.983h-8.3v-.983Zm3.28-1.59v-4.333h-5.842v-1h6.966v5.335Z" transform="translate(-195.642 -276.585)" fill="#25282b"/>
    <path id="패스_563" data-name="패스 563" d="M248.168,286.612v-.84H249.2v.84h2.49v-.84h1.032v.84H254.6v.951h-8.3v-.951Zm4.425,3.27a1.743,1.743,0,0,1-.173.765,1.977,1.977,0,0,1-.466.622,2.171,2.171,0,0,1-1.5.6,2.169,2.169,0,0,1-.83-.162,2.252,2.252,0,0,1-.688-.435,2.049,2.049,0,0,1-.456-.622,1.783,1.783,0,0,1,0-1.529,2.059,2.059,0,0,1,1.144-1.063,2.222,2.222,0,0,1,.83-.157,2.184,2.184,0,0,1,.826.157,2.068,2.068,0,0,1,.672.43,2.1,2.1,0,0,1,.466.633,1.741,1.741,0,0,1,.173.764m-.021-5.963a1.715,1.715,0,0,1-.172.759,2.172,2.172,0,0,1-3.432.628,2.126,2.126,0,0,1-.466-.628,1.749,1.749,0,0,1,0-1.513,2.163,2.163,0,0,1,3.432-.633,2.083,2.083,0,0,1,.466.633,1.729,1.729,0,0,1,.172.754m-1.073,5.943a.97.97,0,0,0-.309-.724,1.033,1.033,0,0,0-.745-.3,1.013,1.013,0,0,0-.739.3.977.977,0,0,0-.3.724.994.994,0,0,0,.3.729,1,1,0,0,0,.739.3,1.024,1.024,0,0,0,.745-.3.986.986,0,0,0,.309-.729m-.021-5.943a.973.973,0,0,0-.3-.709,1,1,0,0,0-.729-.3,1.029,1.029,0,0,0-1.023,1.012.991.991,0,0,0,.3.719.975.975,0,0,0,.724.3,1,1,0,0,0,.729-.3.984.984,0,0,0,.3-.719" transform="translate(-208.993 -275.242)" fill="#25282b"/>
    <path id="패스_564" data-name="패스 564" d="M277.267,291.02v.992h-8.3v-.992h3.584v-2.177h-2.916v-4.809h1.124v3.817h5.973v.992h-3.057v2.177Z" transform="translate(-222.435 -276.481)" fill="#25282b"/>
    <path id="패스_565" data-name="패스 565" d="M295.525,287.256v-.841h-2.916v-3.077h6.976v.952h-5.862v1.185h5.883v.941h-2.956v.841h3.594v.951h-8.3v-.951Zm2.785,3.3a1.894,1.894,0,0,1-.177.8,2.094,2.094,0,0,1-.472.653,2.488,2.488,0,0,1-.713.451,2.275,2.275,0,0,1-1.711,0,2.5,2.5,0,0,1-.714-.451,2.1,2.1,0,0,1-.47-.653,1.914,1.914,0,0,1,0-1.61,2.091,2.091,0,0,1,.47-.653,2.5,2.5,0,0,1,.714-.451,2.276,2.276,0,0,1,1.711,0,2.487,2.487,0,0,1,.713.451,2.088,2.088,0,0,1,.472.653,1.9,1.9,0,0,1,.177.805m-1.084-.02a1.075,1.075,0,0,0-.334-.795,1.137,1.137,0,0,0-1.6,0,1.075,1.075,0,0,0-.334.795,1.058,1.058,0,0,0,.334.79,1.15,1.15,0,0,0,1.6,0,1.058,1.058,0,0,0,.334-.79" transform="translate(-236.058 -276.068)" fill="#25282b"/>
    <path id="패스_566" data-name="패스 566" d="M315.171,289h8.3V290h-3.594v2.328h-1.123V290h-3.584Zm1.771-4.414h4.749v-1.144H322.8v4.343h-6.966v-4.343h1.1Zm4.749.972h-4.749v1.245h4.749Z" transform="translate(-249.832 -276.133)" fill="#25282b"/>
    <path id="패스_567" data-name="패스 567" d="M171.587,275.944a3.953,3.953,0,0,0-5.624,1.18,3.958,3.958,0,0,1-7.154-1.088h0c0-.015-.006-.026-.011-.041s-.009-.034-.013-.051a5.075,5.075,0,0,1-.2-1.572c0-3.547,3.638-7.495,8.879-7.495a9.994,9.994,0,0,1,9.228,6.356c-.013-.04-.026-.08-.039-.121a11.3,11.3,0,0,0-21.992,3.666c0,5.578,4.024,10.354,9.6,10.354a9.077,9.077,0,0,0,8.815-5.935,4.356,4.356,0,0,0-1.49-5.254" transform="translate(-154.657 -265.479)" fill="#071c48"/>
    <path id="패스_568" data-name="패스 568" d="M182.476,275.491a9.962,9.962,0,0,0-9.3-6.576c-5.241,0-8.879,3.948-8.879,7.495a5.079,5.079,0,0,0,.2,1.572,3.327,3.327,0,0,1-.1-.807c0-3.693,3.7-6.252,7.5-6.252a9.318,9.318,0,0,1,9.318,9.317,10.271,10.271,0,0,1-5.694,9.2v0a11.3,11.3,0,0,0,7.452-10.628,11.157,11.157,0,0,0-.5-3.325" transform="translate(-160.374 -267.516)" fill="#fc0019"/>
  </g>
</svg>
