<svg id="그룹_523" data-name="그룹 523" xmlns="http://www.w3.org/2000/svg" xmlns:xlink="http://www.w3.org/1999/xlink" width="77.649" height="20.817" viewBox="0 0 77.649 20.817">
  <defs>
    <radialGradient id="radial-gradient" cx="0.045" cy="0.431" r="1.099" gradientTransform="translate(-2.266 -0.075) scale(0.902 0.977)" gradientUnits="objectBoundingBox">
      <stop offset="0" stop-color="#bfdf18"/>
      <stop offset="1" stop-color="#58b02d"/>
    </radialGradient>
    <radialGradient id="radial-gradient-2" cx="0.495" cy="-1.568" r="2.551" gradientTransform="translate(-13.54 -0.234) scale(0.642 0.977)" gradientUnits="objectBoundingBox">
      <stop offset="0" stop-color="#f7f620"/>
      <stop offset="0.257" stop-color="#f7f11e"/>
      <stop offset="0.543" stop-color="#f7e41b"/>
      <stop offset="0.841" stop-color="#f7cd16"/>
      <stop offset="1" stop-color="#f7bf13"/>
    </radialGradient>
    <radialGradient id="radial-gradient-3" cx="0.938" cy="0.238" r="1.42" gradientTransform="translate(10.177 -0.104) scale(1.251 0.977)" gradientUnits="objectBoundingBox">
      <stop offset="0" stop-color="#f8b210"/>
      <stop offset="1" stop-color="#f8140f"/>
    </radialGradient>
    <radialGradient id="radial-gradient-4" cx="0.071" cy="-0.732" r="2.012" gradientTransform="translate(-12.845 -0.187) scale(0.528 0.977)" gradientUnits="objectBoundingBox">
      <stop offset="0" stop-color="#65bec8"/>
      <stop offset="0.994" stop-color="#3396ac"/>
    </radialGradient>
  </defs>
  <g id="그룹_520" data-name="그룹 520" transform="translate(59.615 0)">
    <path id="패스_542" data-name="패스 542" d="M421.242,81.1c0-.017,0-.034,0-.051a4.377,4.377,0,0,0-.961-2.505,8.609,8.609,0,0,0-3.007-2.416c-3.1-1.542-5.178-1.191-6.254-.52a3.314,3.314,0,0,0-1.393,2.99c.008,1.564,1.005,4.3,2.2,6.918a51.626,51.626,0,0,0,6.443-1.061C420.189,83.871,421.242,82.68,421.242,81.1Z" transform="translate(-404.061 -75.034)" fill="url(#radial-gradient)"/>
    <path id="패스_543" data-name="패스 543" d="M402.108,121.467a35.518,35.518,0,0,1-3.9.022s0,0,0,0c-.155,0-.353.027-.414.138a.231.231,0,0,0-.024.113,1.5,1.5,0,0,0,.319.731,8.279,8.279,0,0,0,2.676,2.355,7.456,7.456,0,0,0,3.35,1.154c.5,0,.621-.116.657-.18.056-.1.082-.219-.313-.711A29.819,29.819,0,0,1,402.108,121.467Z" transform="translate(-395.165 -109.868)" fill="url(#radial-gradient-2)"/>
    <path id="패스_544" data-name="패스 544" d="M393.831,93.415a46.492,46.492,0,0,1-2.286-5.445c-.673-2.072-1.509-2.715-2.367-2.557-.881.194-1.588,1.1-1.783,2.647a7.052,7.052,0,0,0-.049.818,5.833,5.833,0,0,0,.776,2.937,2.837,2.837,0,0,0,2.151,1.591A18,18,0,0,0,393.831,93.415Z" transform="translate(-387.346 -82.803)" fill="url(#radial-gradient-3)"/>
    <path id="패스_545" data-name="패스 545" d="M420.117,118.36a24.318,24.318,0,0,0,1.585,2.667,3.384,3.384,0,0,0,3.025,1.638,5.842,5.842,0,0,0,3.659-1.243c1.28-1,1.841-2.164,1.466-3.027-.421-.9-1.837-1.1-3.838-.811C423.228,117.987,421.062,118.3,420.117,118.36Z" transform="translate(-411.931 -106.863)" fill="url(#radial-gradient-4)"/>
  </g>
  <g id="그룹_522" data-name="그룹 522" transform="translate(0 11.41)">
    <g id="그룹_521" data-name="그룹 521" transform="translate(0 0)">
      <path id="패스_546" data-name="패스 546" d="M206.861,142.265h1.4v-.709h-1.4v-1.993H205.6v6.5h1.256Z" transform="translate(-199.813 -139.265)" fill="#25282b"/>
      <path id="패스_547" data-name="패스 547" d="M188.326,143.97a1.883,1.883,0,0,0,.637-1.422,1.783,1.783,0,0,0-.26-.937,2.2,2.2,0,0,0-.619-.656h1.205v-.707h-1.866V139.2h-1.257v1.047H184.3v.707h1.2a2.221,2.221,0,0,0-.611.656,1.784,1.784,0,0,0-.26.937,1.885,1.885,0,0,0,.641,1.422,2.265,2.265,0,0,0,3.059,0Zm-1.531-2.747a.785.785,0,0,1,.658.389,1.749,1.749,0,0,1,0,1.873.786.786,0,0,1-.658.391.794.794,0,0,1-.655-.392,1.728,1.728,0,0,1,0-1.873A.794.794,0,0,1,186.8,141.222Z" transform="translate(-184.3 -139.002)" fill="#25282b"/>
      <path id="패스_548" data-name="패스 548" d="M195.7,163.453H191.13v-2.164h-1.257v1.95a.881.881,0,0,0,.269.681.969.969,0,0,0,.676.242H195.7Z" transform="translate(-188.358 -155.085)" fill="#25282b"/>
      <path id="패스_549" data-name="패스 549" d="M223.815,143.638v-.707h-1.328a3.062,3.062,0,0,0,.319-1.471v-1.9h-5.924v.709h4.667V141.6a4.845,4.845,0,0,1-.163,1.328h-5.55v.707H219.2v1.524H216.76v.708h4.752v2.469h1.257v-3.176h-2.315v-1.524Z" transform="translate(-207.263 -139.265)" fill="#25282b"/>
      <path id="패스_550" data-name="패스 550" d="M253.609,146.261h1.15a8.257,8.257,0,0,0,.507-2.773V140.24h-6.149v.707h4.892v2.527A8.2,8.2,0,0,1,253.609,146.261Z" transform="translate(-231.498 -139.758)" fill="#25282b"/>
      <path id="패스_551" data-name="패스 551" d="M246.75,155.479h7.7v-.708h-4.014v-3.7h-1.256v3.7H246.75Z" transform="translate(-229.774 -147.642)" fill="#25282b"/>
      <path id="패스_552" data-name="패스 552" d="M325.31,139.555V141.3h-1.8v.71h1.8v2.478h1.256v-4.933H325.31Z" transform="translate(-285.666 -139.259)" fill="#25282b"/>
      <path id="패스_553" data-name="패스 553" d="M320.754,158.56a2.56,2.56,0,0,0-3.3,0,1.9,1.9,0,0,0,0,2.908,2.568,2.568,0,0,0,3.3,0,1.9,1.9,0,0,0,0-2.908Zm-.9,2.389h0a.927.927,0,0,1-.753.4.938.938,0,0,1-.752-.4,1.47,1.47,0,0,1-.318-.936,1.514,1.514,0,0,1,.318-.946.9.9,0,0,1,1.506,0,1.513,1.513,0,0,1,.317.946A1.469,1.469,0,0,1,319.859,160.949Z" transform="translate(-280.766 -152.66)" fill="#25282b"/>
      <path id="패스_554" data-name="패스 554" d="M338.615,146.887v.708h7.7v-.708h-3.22v-1.781h2.314V140.24h-1.255v1.584h-3.374V140.24h-1.257v3.943a.9.9,0,0,0,.254.68.972.972,0,0,0,.7.243h1.361v1.781Zm2.163-2.489v-1.863h3.374V144.4Z" transform="translate(-296.666 -139.758)" fill="#25282b"/>
      <path id="패스_555" data-name="패스 555" d="M384.746,145.381h2.007v.866h1.257v-6.692h-1.257v5.174h-2.007Z" transform="translate(-330.257 -139.259)" fill="#25282b"/>
      <path id="패스_556" data-name="패스 556" d="M374.858,139.911a2.415,2.415,0,0,0-3.02,0,1.657,1.657,0,0,0-.623,1.3,1.632,1.632,0,0,0,.623,1.287,2.425,2.425,0,0,0,3.02,0,1.639,1.639,0,0,0,.619-1.287A1.664,1.664,0,0,0,374.858,139.911Zm-2.136.493h0a.773.773,0,0,1,1.246,0,1.212,1.212,0,0,1,.26.8,1.228,1.228,0,0,1-.26.8.774.774,0,0,1-1.247,0,1.365,1.365,0,0,1,0-1.6Z" transform="translate(-320.404 -139.133)" fill="#25282b"/>
      <path id="패스_557" data-name="패스 557" d="M369.289,154.729H371.2v1.289h1.255v-1.289h2.382v-.684h-5.552Z" transform="translate(-319.002 -149.81)" fill="#25282b"/>
      <path id="패스_558" data-name="패스 558" d="M376.144,164.669v-1.71h-1.257v1.493a.881.881,0,0,0,.268.681.971.971,0,0,0,.678.243H381.1v-.708Z" transform="translate(-323.078 -156.301)" fill="#25282b"/>
      <path id="패스_559" data-name="패스 559" d="M310.25,140.96a3.491,3.491,0,0,0,.606,2.186,2.887,2.887,0,0,0,1.558,1.059l-.481.583h-.009a3.5,3.5,0,0,1-2.322-1.76,3.5,3.5,0,0,1-2.323,1.76h-.009l-.48-.583a2.886,2.886,0,0,0,1.558-1.059,3.491,3.491,0,0,0,.606-2.186h-1.67v-.708h4.636v.708h-1.67Z" transform="translate(-273.493 -139.767)" fill="#25282b"/>
      <path id="패스_560" data-name="패스 560" d="M281.833,143.082v-1.474a1.912,1.912,0,0,0,.215-.266,1.654,1.654,0,0,0,.27-.917,1.738,1.738,0,0,0-.7-1.387,2.844,2.844,0,0,0-3.415,0,1.743,1.743,0,0,0-.693,1.387,1.66,1.66,0,0,0,.27.92,1.812,1.812,0,0,0,.216.27v1.467h-2.119v.71h8.071v-.71Zm-1.258,0h-1.319v-.774a3.15,3.15,0,0,0,1.319,0Zm-.659-1.4a1.265,1.265,0,1,1,1.155-1.26A1.211,1.211,0,0,1,279.916,141.686Z" transform="translate(-250.986 -138.468)" fill="#25282b"/>
      <path id="패스_561" data-name="패스 561" d="M286.21,159.724h0a2.694,2.694,0,0,0-3.234,0,1.666,1.666,0,0,0,0,2.679,2.666,2.666,0,0,0,3.234,0,1.673,1.673,0,0,0,0-2.679Zm-1.619,2.517a1.2,1.2,0,1,1,1.015-1.183A1.109,1.109,0,0,1,284.591,162.241Z" transform="translate(-255.661 -153.553)" fill="#25282b"/>
    </g>
  </g>
</svg>
