<svg xmlns="http://www.w3.org/2000/svg" width="24" height="24" viewBox="0 0 24 24">
  <g id="그룹_3635" data-name="그룹 3635" transform="translate(-1374 -43)">
    <rect id="사각형_679" data-name="사각형 679" width="24" height="24" transform="translate(1374 43)" fill="#fff"/>
    <g id="그룹_3641" data-name="그룹 3641" transform="translate(1071 -650)">
      <circle id="Oval" cx="9" cy="9" r="9" transform="translate(306 696)" fill="#37c375" stroke="#37c375" stroke-miterlimit="10" stroke-width="1.5"/>
      <circle id="Oval-2" data-name="Oval" cx="3" cy="3" r="3" transform="translate(312 700)" fill="#fff"/>
      <path id="합치기_7" data-name="합치기 7" d="M10455,4964a10.5,10.5,0,0,1-3.147-.536,6.856,6.856,0,0,1-2.852-1.759h12a8.844,8.844,0,0,1-3.329,1.906,7.716,7.716,0,0,1-2.54.389Zm-6-2.295a5.1,5.1,0,0,1,2.219-2.672,7.447,7.447,0,0,1,7.563,0,5.1,5.1,0,0,1,2.219,2.672Z" transform="translate(-10140 -4251)" fill="#fff"/>
    </g>
  </g>
</svg>
