<svg xmlns="http://www.w3.org/2000/svg" width="24" height="24" viewBox="0 0 24 24">
  <g id="그룹_589" data-name="그룹 589" transform="translate(-1510 -43)">
    <rect id="사각형_680" data-name="사각형 680" width="24" height="24" transform="translate(1510 43)" fill="#fff"/>
    <circle id="Oval" cx="8" cy="8" r="8" transform="translate(1514 47)" fill="none" stroke="#37c375" stroke-miterlimit="10" stroke-width="2"/>
    <path id="Path" d="M12.989,0a7.684,7.684,0,0,1-2.805,2.028,9.48,9.48,0,0,1-3.634.765,9.571,9.571,0,0,1-3.664-.666A7.852,7.852,0,0,1,0,.175" transform="translate(1515.583 50.206)" fill="none" stroke="#37c375" stroke-miterlimit="10" stroke-width="2"/>
    <path id="Path-2" data-name="Path" d="M12.989,2.794A7.684,7.684,0,0,0,10.184.766a9.663,9.663,0,0,0-7.3-.1A7.852,7.852,0,0,0,0,2.619" transform="translate(1515.583 57)" fill="none" stroke="#37c375" stroke-miterlimit="10" stroke-width="2"/>
    <path id="Path-3" data-name="Path" d="M.5,0V16" transform="translate(1521.5 47)" fill="none" stroke="#37c375" stroke-miterlimit="10" stroke-width="2"/>
  </g>
</svg>
