<svg xmlns="http://www.w3.org/2000/svg" width="79.315" height="12.858" viewBox="0 0 79.315 12.858">
  <g id="그룹_517" data-name="그룹 517" transform="translate(-184.3 -138.468)">
    <g id="그룹_516" data-name="그룹 516" transform="translate(184.3 138.74)">
      <path id="패스_514" data-name="패스 514" d="M207.322,143.256h1.915v-.969h-1.915v-2.724h-1.717v8.885h1.717Z" transform="translate(-197.688 -139.428)" fill="#5b626c"/>
      <path id="패스_515" data-name="패스 515" d="M189.8,145.72a2.574,2.574,0,0,0,.871-1.944,2.437,2.437,0,0,0-.355-1.28,3,3,0,0,0-.846-.9h1.648v-.967H188.57V139.2h-1.718v1.431H184.3v.967h1.638a3.035,3.035,0,0,0-.836.9,2.438,2.438,0,0,0-.355,1.28,2.576,2.576,0,0,0,.876,1.944,3.1,3.1,0,0,0,4.181,0Zm-2.093-3.756a1.074,1.074,0,0,1,.9.532,2.391,2.391,0,0,1,0,2.561,1.074,1.074,0,0,1-.9.535,1.085,1.085,0,0,1-.9-.535,2.362,2.362,0,0,1,0-2.56A1.086,1.086,0,0,1,187.711,141.964Z" transform="translate(-184.3 -139.201)" fill="#5b626c"/>
      <path id="패스_516" data-name="패스 516" d="M197.845,164.247h-6.254v-2.958h-1.718v2.665a1.2,1.2,0,0,0,.368.93,1.324,1.324,0,0,0,.924.33h6.679Z" transform="translate(-187.802 -153.081)" fill="#5b626c"/>
      <path id="패스_517" data-name="패스 517" d="M226.743,145.134v-.966h-1.816a4.185,4.185,0,0,0,.436-2.01v-2.594h-8.1v.969h6.38v1.82a6.622,6.622,0,0,1-.223,1.816h-7.587v.966h4.6v2.083H217.1v.967h6.5v3.374h1.718v-4.342h-3.165v-2.083Z" transform="translate(-204.118 -139.428)" fill="#5b626c"/>
      <path id="패스_518" data-name="패스 518" d="M255.257,148.471h1.572a11.287,11.287,0,0,0,.693-3.79V140.24h-8.405v.967H255.8v3.454A11.215,11.215,0,0,1,255.257,148.471Z" transform="translate(-225.032 -139.854)" fill="#5b626c"/>
      <path id="패스_519" data-name="패스 519" d="M246.75,157.1h10.522v-.968h-5.487v-5.063h-1.717v5.063H246.75Z" transform="translate(-223.544 -146.658)" fill="#5b626c"/>
      <path id="패스_520" data-name="패스 520" d="M325.971,139.555v2.386h-2.463v.971h2.463V146.3h1.717v-6.743h-1.717Z" transform="translate(-271.78 -139.423)" fill="#5b626c"/>
      <path id="패스_521" data-name="패스 521" d="M322.213,158.781a3.5,3.5,0,0,0-4.506,0,2.592,2.592,0,0,0,0,3.975,3.51,3.51,0,0,0,4.506,0,2.594,2.594,0,0,0,0-3.976Zm-1.224,3.265h0a1.267,1.267,0,0,1-1.03.547,1.282,1.282,0,0,1-1.029-.547,2.01,2.01,0,0,1-.435-1.279,2.07,2.07,0,0,1,.435-1.293,1.228,1.228,0,0,1,2.058,0,2.068,2.068,0,0,1,.433,1.293A2.008,2.008,0,0,1,320.989,162.046Z" transform="translate(-267.551 -150.989)" fill="#5b626c"/>
      <path id="패스_522" data-name="패스 522" d="M338.615,149.326v.968h10.523v-.968h-4.4v-2.434H347.9V140.24h-1.716v2.166h-4.612V140.24h-1.718v5.39a1.23,1.23,0,0,0,.347.93,1.329,1.329,0,0,0,.956.332h1.86v2.434Zm2.957-3.4v-2.547h4.612v2.547Z" transform="translate(-281.273 -139.854)" fill="#5b626c"/>
      <path id="패스_523" data-name="패스 523" d="M384.746,147.519h2.743V148.7h1.718v-9.147h-1.718v7.073h-2.743Z" transform="translate(-310.262 -139.423)" fill="#5b626c"/>
      <path id="패스_524" data-name="패스 524" d="M376.2,140.106a3.3,3.3,0,0,0-4.128,0,2.265,2.265,0,0,0-.852,1.772,2.231,2.231,0,0,0,.852,1.759,3.315,3.315,0,0,0,4.128,0,2.24,2.24,0,0,0,.846-1.759A2.274,2.274,0,0,0,376.2,140.106Zm-2.92.674h0a1.057,1.057,0,0,1,1.7,0,1.657,1.657,0,0,1,.356,1.1,1.679,1.679,0,0,1-.355,1.1,1.058,1.058,0,0,1-1.7,0,1.866,1.866,0,0,1,0-2.194Z" transform="translate(-301.759 -139.314)" fill="#5b626c"/>
      <path id="패스_525" data-name="패스 525" d="M369.289,154.98h2.617v1.762h1.715V154.98h3.257v-.935h-7.589Z" transform="translate(-300.549 -148.529)" fill="#5b626c"/>
      <path id="패스_526" data-name="패스 526" d="M376.6,165.3v-2.338h-1.718V165a1.2,1.2,0,0,0,.366.931,1.327,1.327,0,0,0,.927.333h7.2V165.3Z" transform="translate(-304.067 -154.131)" fill="#5b626c"/>
    </g>
    <path id="패스_527" data-name="패스 527" d="M311.519,141.22a4.773,4.773,0,0,0,.828,2.988,3.947,3.947,0,0,0,2.13,1.447l-.657.8h-.012a4.783,4.783,0,0,1-3.174-2.406,4.79,4.79,0,0,1-3.175,2.406h-.012l-.656-.8a3.946,3.946,0,0,0,2.13-1.447,4.773,4.773,0,0,0,.828-2.988h-2.283v-.968H313.8v.968h-2.283Z" transform="translate(-76.975 -1.121)" fill="#5b626c"/>
    <path id="패스_528" data-name="패스 528" d="M284.017,144.775v-2.014a2.608,2.608,0,0,0,.294-.364,2.261,2.261,0,0,0,.369-1.253,2.376,2.376,0,0,0-.95-1.9,3.888,3.888,0,0,0-4.669,0,2.383,2.383,0,0,0-.948,1.9,2.269,2.269,0,0,0,.369,1.257,2.476,2.476,0,0,0,.295.369v2.006h-2.9v.97h11.032v-.97Zm-1.719,0h-1.8v-1.058a4.307,4.307,0,0,0,1.8,0Zm-.9-1.909a1.729,1.729,0,1,1,1.578-1.722A1.656,1.656,0,0,1,281.4,142.867Z" transform="translate(-57.55 0)" fill="#5b626c"/>
    <path id="패스_529" data-name="패스 529" d="M287.645,159.922h0a3.683,3.683,0,0,0-4.42,0,2.278,2.278,0,0,0,0,3.662,3.644,3.644,0,0,0,4.421,0,2.286,2.286,0,0,0,0-3.662Zm-2.214,3.441a1.636,1.636,0,1,1,1.387-1.617A1.516,1.516,0,0,1,285.431,163.363Z" transform="translate(-61.585 -13.019)" fill="#5b626c"/>
  </g>
</svg>
