<svg width="62" height="34" viewBox="0 0 62 34" fill="none" xmlns="http://www.w3.org/2000/svg">
<path d="M38.9727 2.81901C38.9727 1.7842 39.8115 0.945312 40.8464 0.945312L59.3091 0.945312C60.3439 0.945312 61.1828 1.7842 61.1828 2.81901V24.4546C61.1828 25.4894 60.3439 26.3283 59.3091 26.3283H40.8464C39.8115 26.3283 38.9727 25.4894 38.9727 24.4546V2.81901Z" fill="#C8C8C8"/>
<path d="M41.5576 3.53125L58.5971 3.53125V20.5708L41.5576 20.5708V3.53125Z" fill="white"/>
<path d="M34.5649 4.71611C34.8327 3.71655 35.8601 3.12337 36.8597 3.3912L54.6933 8.1697C55.6928 8.43753 56.286 9.46495 56.0182 10.4645L50.4185 31.3629C50.1506 32.3624 49.1232 32.9556 48.1237 32.6878L30.2901 27.9093C29.2905 27.6414 28.6973 26.614 28.9652 25.6145L34.5649 4.71611Z" fill="#989898"/>
<path d="M36.8779 6.07227L53.3368 10.4824L48.9267 26.9413L32.4678 22.5312L36.8779 6.07227Z" fill="white"/>
<path d="M1.9398 16.9133C0.868477 12.915 3.2412 8.80535 7.23942 7.73403L25.338 2.88454C29.3362 1.81322 33.4459 4.18594 34.5172 8.18416L36.457 15.4236C37.5283 19.4218 35.1556 23.5315 31.1574 24.6028L13.0588 29.4523C9.06059 30.5236 4.95092 28.1509 3.87959 24.1527L1.9398 16.9133Z" fill="#393939"/>
<path d="M14.5514 13.3067C14.363 12.6033 15.0139 11.9632 15.714 12.1635L23.1261 14.2838C23.8061 14.4783 24.0336 15.3273 23.542 15.8358L18.1831 21.378C17.6769 21.9016 16.7931 21.6727 16.6046 20.9693L14.5514 13.3067Z" fill="white"/>
</svg>
